<svg xmlns="http://www.w3.org/2000/svg" xml:space="preserve" width="814.81335" height="500" viewBox="0 0 814.81334 500"><path d="m0 0-21.165-79.055s19.596 26.103 42.476-.071z" style="fill:#fcd31d;fill-opacity:1;fill-rule:nonzero;stroke:none" transform="matrix(2.17753 0 0 -2.17753 128.043 711.38)"/><path d="m0 0-5.061.969a35.742 35.742 0 0 0-5.523-5.717l.434-5.467-6.535-3.821-3.889 3.39c-2.435-.963-4.956-1.638-7.62-2.064l-2.42-4.966-7.573.027-1.579 4.9c-2.481.371-4.781 1.005-7.067 1.854l-4.552-3.122-6.576 3.757 1.009 5.058a36.943 36.943 0 0 0-5.22 5.09l-5.468-.471-3.87 6.514 3.358 3.92c-.989 2.454-1.677 5.006-2.118 7.694l-4.973 2.4-.004 7.575 4.895 1.591c.408 2.742 1.118 5.271 2.096 7.778l-3.045 4.591 3.862 6.514 5.072-1.04a36.223 36.223 0 0 0 4.883 4.875l-.428 5.473 6.535 3.815 3.883-3.395c2.4.945 4.872 1.607 7.488 2.03l2.406 4.974h7.571l1.59-4.895c2.638-.397 5.072-1.074 7.498-2.003l4.58 3.079 6.537-3.819-1.022-5.061a37.152 37.152 0 0 0 5.176-5.149l5.463.405 3.801-6.546-3.413-3.863c.893-2.275 1.518-4.594 1.941-7.053l4.989-2.354.07-7.575-4.88-1.642c-.354-2.501-.962-4.815-1.786-7.113l3.168-4.521Zm-34.047 69.061c-25.151 0-45.537-20.375-45.537-45.53 0-25.156 20.386-45.535 45.537-45.535 25.144 0 45.532 20.379 45.532 45.535 0 25.155-20.388 45.53-45.532 45.53" style="fill:#fcd31d;fill-opacity:1;fill-rule:nonzero;stroke:none" transform="matrix(2.17753 0 0 -2.17753 202.12 854.334)"/><path d="M0 0v-6.227h11.381V-18.59H6.777v8.014h-21.965v4.349h10.35V0h-14.315v4.303H5.232c.266 1.195.547 2.603.854 4.224.303 1.618.519 3.209.65 4.776h-22.044v4.304h27.362c0-.683-.099-1.773-.299-3.281a86.206 86.206 0 0 0-.574-3.797c-.265-1.418-.484-2.595-.657-3.513a54.977 54.977 0 0 0-.571-2.713h5.784V0Z" style="fill:#231f20;fill-opacity:1;fill-rule:nonzero;stroke:none" transform="matrix(2.17753 0 0 -2.17753 305.786 774.024)"/><path d="M0 0v-9.381h-4.598v22.299H0V4.389h4.798V0Zm-6.561-15.412c-1.548.582-3.575.869-6.088.869-2.563 0-4.609-.287-6.143-.869-1.534-.582-2.3-1.389-2.3-2.412 0-1.024.766-1.824 2.3-2.406 1.534-.58 3.58-.875 6.143-.875 2.513 0 4.54.295 6.088.875 1.548.582 2.32 1.382 2.32 2.406 0 1.023-.772 1.83-2.32 2.412m-8.703 17.156h-8.684v-4.982h8.684zm12.669-24.808c-2.314-1.366-5.678-2.045-10.093-2.045-4.386 0-7.731.679-10.029 2.045-2.3 1.365-3.451 3.129-3.451 5.283 0 2.131 1.151 3.896 3.451 5.291 2.298 1.389 5.643 2.086 10.029 2.086 4.415 0 7.779-.697 10.093-2.086C-.281-13.885.873-15.65.873-17.781c0-2.154-1.154-3.918-3.468-5.283M-28.548-7.715v19.27h4.601V6.184h8.683v5.371h4.601v-19.27z" style="fill:#231f20;fill-opacity:1;fill-rule:nonzero;stroke:none" transform="matrix(2.17753 0 0 -2.17753 448.582 760.933)"/><path d="M0 0v-17.439h-4.605V20.08H0V4.389h4.997V0Zm-8.902 11.105c-.148-1.83-.312-3.459-.495-4.88a147.891 147.891 0 0 0-.736-5.479c-.224-1.439-.349-2.199-.377-2.283h-4.556c.048.232.3 1.971.752 5.221.448 3.259.683 5.994.71 8.211h-15.143v4.304h20.102a83.107 83.107 0 0 0-.257-5.094m-3.947-21.486c-3.752-.33-8.38-.494-13.877-.494h-3.807v4.352h6.545V4.773h4.597V-6.395c1.562 0 4.012.118 7.358.364 3.342.238 5.344.433 6.006.574v-4.27c-.793-.109-3.07-.328-6.822-.654" style="fill:#231f20;fill-opacity:1;fill-rule:nonzero;stroke:none" transform="matrix(2.17753 0 0 -2.17753 567.568 776.529)"/><path d="M0 0v-9.293h-4.598v23.877H0V4.399h4.765V0Zm-15.051-.424c-.88.424-2.105.637-3.662.637-1.528 0-2.765-.219-3.708-.66-.938-.44-1.409-1.041-1.409-1.813 0-.795.471-1.425 1.409-1.896.943-.465 2.18-.697 3.708-.697 1.557 0 2.782.236 3.662.72.895.485 1.338 1.119 1.338 1.914 0 .776-.443 1.369-1.338 1.795m-9.569 15.223h11.651v-3.924H-24.62Zm19.905-37.734v7.548h-21.172v4.262H0v-11.81zm-6.802 16.183c-1.78-1.213-4.207-1.814-7.28-1.814-2.878 0-5.255.601-7.134 1.814-1.879 1.205-2.808 2.705-2.808 4.492 0 1.795.929 3.264 2.79 4.416 1.862 1.151 4.274 1.725 7.236 1.725 3.064 0 5.476-.574 7.24-1.725 1.75-1.152 2.631-2.621 2.631-4.416 0-1.787-.894-3.287-2.675-4.492M-29.855 9.086H-7.69V5.162h-22.165z" style="fill:#231f20;fill-opacity:1;fill-rule:nonzero;stroke:none" transform="matrix(2.17753 0 0 -2.17753 685.935 764.561)"/><path d="M0 0v3.373h-6.7c.052-.287.093-.568.117-.855.03-.284.044-.584.044-.895 0-.281-.014-.564-.025-.834A4.904 4.904 0 0 0-6.662 0Zm-20.978-24.258v12.026h4.765v-7.717H5.394v-4.309zm.974 29.633c-.855-1.053-1.291-2.301-1.291-3.752 0-1.42.436-2.656 1.291-3.711.862-1.055 2.096-1.574 3.703-1.574 1.642 0 2.892.519 3.747 1.574.865 1.055 1.294 2.291 1.294 3.711 0 1.451-.429 2.699-1.294 3.752-.855 1.053-2.105 1.576-3.747 1.576-1.607 0-2.841-.523-3.703-1.576M0 7.594v4.816h4.603v-27.119H0v10.533h-8.445c-.873-1.14-1.984-2.051-3.329-2.748-1.354-.697-2.861-1.049-4.527-1.049-2.827 0-5.146.946-6.973 2.819-1.825 1.873-2.739 4.129-2.739 6.777 0 2.645.914 4.908 2.739 6.805 1.827 1.885 4.146 2.834 6.973 2.834 1.642 0 3.124-.338 4.447-1.004 1.322-.67 2.418-1.557 3.293-2.664z" style="fill:#231f20;fill-opacity:1;fill-rule:nonzero;stroke:none" transform="matrix(2.17753 0 0 -2.17753 797.4 759.827)"/><path d="M0 0v-15.65h-4.721V0h-14.236v4.305H5.111c.315 1.023.681 2.67 1.092 4.947.41 2.269.667 4.4.771 6.393h-22.05v4.304h27.323c0-.627-.117-1.924-.355-3.9a157.583 157.583 0 0 0-.676-5.008 50.463 50.463 0 0 0-.752-3.947 126.798 126.798 0 0 1-.629-2.789h6.096V0Z" style="fill:#231f20;fill-opacity:1;fill-rule:nonzero;stroke:none" transform="matrix(2.17753 0 0 -2.17753 896.781 780.425)"/><path d="M0 0c-.913-.988-1.979-1.973-3.197-2.965a21.424 21.424 0 0 0-4.064-2.629c-1.409-.689-2.541-1.197-3.386-1.51l-2.97 3.452c1.236.484 2.644 1.172 4.218 2.054 1.575.875 3.087 1.969 4.537 3.28 1.378 1.25 2.412 2.703 3.098 4.349a13.163 13.163 0 0 1 1.029 5.117v3.112h5.234v-3.112c0-1.765.345-3.47 1.028-5.117a12.263 12.263 0 0 1 3.094-4.349c1.483-1.311 3-2.405 4.562-3.28 1.562-.882 2.957-1.57 4.207-2.054l-2.976-3.452c-.846.313-1.977.821-3.391 1.51a21.837 21.837 0 0 0-4.068 2.629C5.744-1.973 4.691-.988 3.808 0c-.887.979-1.53 1.908-1.923 2.789C1.537 1.908.905.979 0 0m-15.567-17.973v4.305H-.612v7.293h4.909v-7.293h15.026v-4.305z" style="fill:#231f20;fill-opacity:1;fill-rule:nonzero;stroke:none" transform="matrix(2.17753 0 0 -2.17753 1007.684 766.543)"/><path d="m0 0-2.808 7.685L-5.654 0Zm5.072-6.684H2.48L.926-2.509h-7.51l-1.532-4.175h-2.592l6.413 17.403h2.915z" style="fill:#231f20;fill-opacity:1;fill-rule:nonzero;stroke:none" transform="matrix(2.17753 0 0 -2.17753 287.231 855.51)"/><path d="M0 0c1.024 0 1.842.346 2.451 1.037.61.687.917 1.617.917 2.793 0 1.181-.307 2.093-.917 2.755-.609.656-1.427.985-2.451.985-1.006 0-1.814-.329-2.413-.985-.608-.662-.909-1.574-.909-2.755 0-1.185.301-2.123.909-2.803C-1.814.342-1.006 0 0 0m5.827 9.496V-2.112c0-1.902-.602-3.32-1.814-4.267-.992-.79-2.27-1.184-3.84-1.184-1.657 0-3.005.447-4.057 1.347-.981.805-1.511 1.81-1.599 3.014h2.528c.027-.567.307-1.05.84-1.438.591-.428 1.362-.651 2.307-.651 2.104 0 3.155 1.016 3.155 3.044v1.511C2.31-1.853 1.05-2.407-.431-2.407c-1.583 0-2.907.594-3.973 1.781C-5.467.569-6 2.053-6 3.83c0 1.765.525 3.225 1.586 4.38 1.06 1.147 2.387 1.729 3.983 1.729 1.539 0 2.8-.516 3.778-1.533v1.09z" style="fill:#231f20;fill-opacity:1;fill-rule:nonzero;stroke:none" transform="matrix(2.17753 0 0 -2.17753 313.406 863.304)"/><path d="M0 0h6.562c-.111.932-.46 1.688-1.046 2.277-.582.586-1.327.879-2.233.879-.877 0-1.61-.287-2.19-.86C.509 1.724.144.961 0 0m9.283-2.226H-.04a4.034 4.034 0 0 1 1.066-2.475c.64-.702 1.393-1.054 2.257-1.054.749 0 1.404.201 1.966.601.442.329.737.704.884 1.138h2.761c-.33-1.125-.901-2.051-1.706-2.759-1.02-.896-2.31-1.349-3.863-1.349-1.739 0-3.186.651-4.337 1.95-1.151 1.3-1.727 2.917-1.727 4.85 0 1.98.558 3.615 1.674 4.895 1.114 1.29 2.571 1.928 4.366 1.928 1.759 0 3.174-.613 4.255-1.856 1.239-1.39 1.811-3.35 1.727-5.869" style="fill:#231f20;fill-opacity:1;fill-rule:nonzero;stroke:none" transform="matrix(2.17753 0 0 -2.17753 336.717 853.444)"/><path d="M0 0v-8.493h-2.526v7.357c0 2.023-.815 3.039-2.438 3.039-.879 0-1.595-.318-2.16-.95-.56-.639-.839-1.444-.839-2.416v-7.03h-2.505V4.035h2.505V2.856c1.062 1.078 2.277 1.623 3.644 1.623.206 0 .413-.006.626-.025 1.181-.12 2.119-.679 2.808-1.671A4.72 4.72 0 0 0 0 0" style="fill:#231f20;fill-opacity:1;fill-rule:nonzero;stroke:none" transform="matrix(2.17753 0 0 -2.17753 384.8 851.57)"/><path d="m0 0 2.739-.025c-.314-1.299-.93-2.349-1.833-3.154-1.023-.948-2.289-1.42-3.8-1.42-1.827 0-3.279.64-4.358 1.903-1.082 1.271-1.62 2.894-1.62 4.88 0 1.981.538 3.602 1.62 4.873 1.079 1.263 2.531 1.902 4.358 1.902 1.511 0 2.806-.508 3.882-1.507.938-.865 1.519-1.9 1.751-3.091H.021a2.851 2.851 0 0 1-.842 1.442c-.549.495-1.231.74-2.051.74-1.024 0-1.836-.4-2.441-1.204-.604-.805-.906-1.863-.906-3.155 0-1.29.307-2.338.919-3.149.611-.812 1.418-1.217 2.428-1.217.749 0 1.388.226 1.918.673.477.4.791.906.954 1.509" style="fill:#231f20;fill-opacity:1;fill-rule:nonzero;stroke:none" transform="matrix(2.17753 0 0 -2.17753 408.725 861.12)"/><path d="m0 0-5.504-14.714c-.346-.914-.864-1.551-1.554-1.926-.503-.261-1.196-.386-2.072-.371l-1.058.025v2.224h1.21c.591 0 1.006.327 1.252.978l.495 1.326L-11.936 0h2.653L-6-9.005-2.614 0Z" style="fill:#231f20;fill-opacity:1;fill-rule:nonzero;stroke:none" transform="matrix(2.17753 0 0 -2.17753 441.294 842.784)"/><path d="M0 0h-1.687v-10.396h-2.544V0h-1.425v2.253h1.444v1.39c0 1.144.219 1.951.649 2.417.488.698 1.159 1.037 2.007 1.018L0 7.055V4.806c-.651 0-1.08-.097-1.298-.28-.258-.232-.389-.673-.389-1.324v-.949H0Z" style="fill:#231f20;fill-opacity:1;fill-rule:nonzero;stroke:none" transform="matrix(2.17753 0 0 -2.17753 471.474 847.428)"/><path d="M0 0c1.005 0 1.814.411 2.427 1.229.611.824.919 1.872.919 3.162 0 1.282-.308 2.327-.919 3.132C1.814 8.326 1.005 8.727 0 8.727c-1.007 0-1.814-.401-2.419-1.204-.605-.805-.906-1.85-.906-3.132 0-1.29.301-2.338.906-3.162C-1.814.411-1.007 0 0 0m0 11.143c1.825 0 3.285-.639 4.38-1.902 1.095-1.271 1.641-2.888 1.641-4.85 0-1.969-.541-3.577-1.619-4.832C3.295-1.741 1.825-2.392 0-2.392c-1.801 0-3.253.651-4.362 1.951C-5.44.814-5.979 2.422-5.979 4.391c0 1.962.544 3.579 1.639 4.85 1.095 1.263 2.539 1.902 4.34 1.902" style="fill:#231f20;fill-opacity:1;fill-rule:nonzero;stroke:none" transform="matrix(2.17753 0 0 -2.17753 486.748 865.926)"/><path d="M0 0v-2.721c-.853 0-1.535-.154-2.049-.46-1.239-.744-1.86-2.068-1.86-3.971v-5.94h-2.502V-.514h2.502v-1.623c.536.807 1.218 1.397 2.052 1.783.271.128.653.221 1.143.282.245.028.482.053.714.072" style="fill:#231f20;fill-opacity:1;fill-rule:nonzero;stroke:none" transform="matrix(2.17753 0 0 -2.17753 518.941 841.557)"/><path d="M0 0c1.682 0 2.987.609 3.906 1.813.848 1.098 1.277 2.576 1.277 4.431 0 1.825-.429 3.299-1.277 4.414-.919 1.205-2.224 1.808-3.906 1.808h-2.763V0Zm.429 14.947c2.262 0 4.088-.836 5.48-2.506 1.338-1.623 2.012-3.693 2.012-6.197 0-2.523-.674-4.587-2.012-6.196C4.532-1.623 2.702-2.456.429-2.456h-5.695v17.403z" style="fill:#231f20;fill-opacity:1;fill-rule:nonzero;stroke:none" transform="matrix(2.17753 0 0 -2.17753 551.654 864.716)"/><path d="M0 0h6.562c-.114.932-.466 1.688-1.052 2.277-.579.586-1.321.879-2.23.879-.877 0-1.609-.287-2.19-.86C.506 1.724.145.961 0 0m9.28-2.226H-.042a4.008 4.008 0 0 1 1.068-2.475c.64-.702 1.396-1.054 2.254-1.054.752 0 1.409.201 1.969.601.44.329.74.704.882 1.138h2.763c-.329-1.125-.901-2.051-1.706-2.759-1.02-.896-2.31-1.349-3.86-1.349-1.739 0-3.192.651-4.343 1.95-1.151 1.3-1.729 2.917-1.729 4.85 0 1.98.563 3.615 1.676 4.895 1.116 1.29 2.571 1.928 4.372 1.928 1.753 0 3.173-.613 4.246-1.856 1.242-1.39 1.815-3.35 1.73-5.869" style="fill:#231f20;fill-opacity:1;fill-rule:nonzero;stroke:none" transform="matrix(2.17753 0 0 -2.17753 578.81 853.444)"/><path d="M0 0h-1.687v-10.396h-2.546V0h-1.426v2.253h1.45v1.39c0 1.144.215 1.951.644 2.417.488.698 1.156 1.037 2.004 1.018L0 7.055V4.806c-.655 0-1.085-.097-1.3-.28-.261-.232-.387-.673-.387-1.324v-.949H0Z" style="fill:#231f20;fill-opacity:1;fill-rule:nonzero;stroke:none" transform="matrix(2.17753 0 0 -2.17753 613.98 847.428)"/><path d="M0 0h6.562c-.106.932-.461 1.688-1.044 2.277-.579.586-1.33.879-2.236.879-.871 0-1.604-.287-2.184-.86C.514 1.724.144.961 0 0m9.282-2.226H-.035a4.05 4.05 0 0 1 1.06-2.475c.645-.702 1.396-1.054 2.257-1.054.751 0 1.407.201 1.966.601.44.329.741.704.885 1.138h2.765c-.333-1.125-.905-2.051-1.705-2.759-1.026-.896-2.312-1.349-3.865-1.349-1.74 0-3.184.651-4.341 1.95-1.145 1.3-1.724 2.917-1.724 4.85 0 1.98.555 3.615 1.676 4.895 1.109 1.29 2.566 1.928 4.367 1.928 1.753 0 3.173-.613 4.252-1.856C8.792 2.253 9.37.293 9.282-2.226" style="fill:#231f20;fill-opacity:1;fill-rule:nonzero;stroke:none" transform="matrix(2.17753 0 0 -2.17753 622.189 853.444)"/><path d="M0 0v-8.493h-2.523v7.357c0 2.023-.815 3.039-2.44 3.039-.876 0-1.596-.318-2.158-.95-.563-.639-.842-1.444-.842-2.416v-7.03h-2.499V4.035h2.499V2.856c1.068 1.078 2.286 1.623 3.645 1.623.203 0 .418-.006.634-.025 1.18-.12 2.11-.679 2.803-1.671A4.724 4.724 0 0 0 0 0" style="fill:#231f20;fill-opacity:1;fill-rule:nonzero;stroke:none" transform="matrix(2.17753 0 0 -2.17753 670.27 851.57)"/><path d="M0 0c1.539-.847 2.273-1.916 2.2-3.202-.059-1.145-.589-2.114-1.596-2.9C-.405-6.889-1.604-7.283-3-7.283c-1.854 0-3.298.573-4.319 1.712-.78.881-1.185 1.886-1.233 2.993h2.488c.069-.662.357-1.197.863-1.596.533-.449 1.233-.676 2.113-.676 1.555 0 2.421.497 2.587 1.484.109.592-.286 1.075-1.165 1.463-.469.221-1.172.43-2.091.624-1.02.234-1.657.402-1.897.493-1.742.619-2.565 1.745-2.461 3.387.053 1.006.522 1.872 1.398 2.599.957.787 2.137 1.181 3.544 1.181 1.507 0 2.744-.46 3.711-1.389.844-.835 1.263-1.779 1.229-2.831H-.691c.03.434-.157.826-.537 1.186-.478.428-1.133.65-1.969.65-.752 0-1.335-.15-1.764-.443-.381-.251-.573-.573-.586-.978-.029-.399.095-.708.389-.925.197-.154.578-.321 1.122-.487A70.73 70.73 0 0 1-2.092.719C-1.157.506-.464.261 0 0" style="fill:#231f20;fill-opacity:1;fill-rule:nonzero;stroke:none" transform="matrix(2.17753 0 0 -2.17753 693.025 855.366)"/><path d="M0 0h6.562c-.115.932-.467 1.688-1.05 2.277-.579.586-1.324.879-2.233.879-.873 0-1.609-.287-2.19-.86C.506 1.724.144.961 0 0m9.282-2.226H-.04a4 4 0 0 1 1.065-2.475c.64-.702 1.396-1.054 2.254-1.054.754 0 1.41.201 1.969.601.443.329.74.704.885 1.138h2.76c-.328-1.125-.901-2.051-1.705-2.759-1.021-.896-2.308-1.349-3.86-1.349-1.74 0-3.19.651-4.341 1.95-1.153 1.3-1.729 2.917-1.729 4.85 0 1.98.56 3.615 1.676 4.895 1.114 1.29 2.568 1.928 4.369 1.928 1.756 0 3.173-.613 4.249-1.856 1.24-1.39 1.812-3.35 1.73-5.869" style="fill:#231f20;fill-opacity:1;fill-rule:nonzero;stroke:none" transform="matrix(2.17753 0 0 -2.17753 706.792 853.444)"/><path d="M0 0c1.684 0 2.989.609 3.909 1.813.844 1.098 1.276 2.576 1.276 4.431 0 1.825-.432 3.299-1.276 4.414-.92 1.205-2.225 1.808-3.909 1.808h-2.76V0Zm.432 14.947c2.259 0 4.084-.836 5.48-2.506C7.247 10.818 7.92 8.748 7.92 6.244c0-2.523-.673-4.587-2.008-6.196-1.377-1.671-3.21-2.504-5.48-2.504h-5.696v17.403z" style="fill:#231f20;fill-opacity:1;fill-rule:nonzero;stroke:none" transform="matrix(2.17753 0 0 -2.17753 760.001 864.716)"/><path d="M0 0h6.559c-.114.932-.463 1.688-1.05 2.277-.577.586-1.323.879-2.23.879-.876 0-1.611-.287-2.19-.86C.506 1.724.141.961 0 0m9.279-2.226H-.043a4.023 4.023 0 0 1 1.066-2.475c.639-.702 1.396-1.054 2.256-1.054.752 0 1.407.201 1.969.601.44.329.739.704.882 1.138h2.763c-.33-1.125-.903-2.051-1.708-2.759-1.021-.896-2.307-1.349-3.857-1.349-1.743 0-3.192.651-4.343 1.95-1.151 1.3-1.729 2.917-1.729 4.85 0 1.98.559 3.615 1.676 4.895 1.116 1.29 2.57 1.928 4.372 1.928 1.752 0 3.172-.613 4.246-1.856 1.242-1.39 1.812-3.35 1.729-5.869" style="fill:#231f20;fill-opacity:1;fill-rule:nonzero;stroke:none" transform="matrix(2.17753 0 0 -2.17753 787.165 853.444)"/><path d="m0 0-4.516-12.528H-7.41L-11.941 0h2.677l3.298-9.279L-2.638 0Z" style="fill:#231f20;fill-opacity:1;fill-rule:nonzero;stroke:none" transform="matrix(2.17753 0 0 -2.17753 834.359 842.784)"/><path d="M0 0h6.562c-.106.932-.458 1.688-1.044 2.277-.578.586-1.329.879-2.235.879-.871 0-1.607-.287-2.185-.86C.515 1.724.144.961 0 0m9.283-2.226H-.034a4.03 4.03 0 0 1 1.062-2.475c.642-.702 1.394-1.054 2.255-1.054.75 0 1.406.201 1.965.601.443.329.741.704.885 1.138h2.768c-.336-1.125-.908-2.051-1.707-2.759-1.026-.896-2.316-1.349-3.864-1.349-1.742 0-3.186.651-4.342 1.95-1.145 1.3-1.724 2.917-1.724 4.85 0 1.98.555 3.615 1.676 4.895 1.109 1.29 2.563 1.928 4.367 1.928 1.753 0 3.172-.613 4.252-1.856 1.233-1.39 1.814-3.35 1.724-5.869" style="fill:#231f20;fill-opacity:1;fill-rule:nonzero;stroke:none" transform="matrix(2.17753 0 0 -2.17753 841.396 853.444)"/><path d="M811.866-201.588h4.08v28.5h-4.08z" style="fill:#231f20;fill-opacity:1;fill-rule:nonzero;stroke:none;stroke-width:1.63315" transform="matrix(1.33333 0 0 -1.33333 -215.79 601.282)"/><path d="M0 0c1.002 0 1.812.411 2.428 1.229.612.824.919 1.872.919 3.162 0 1.282-.307 2.327-.919 3.132C1.812 8.326 1.002 8.727 0 8.727c-1.009 0-1.814-.401-2.422-1.204-.601-.805-.909-1.85-.909-3.132 0-1.29.308-2.338.909-3.162C-1.814.411-1.009 0 0 0m0 11.143c1.826 0 3.286-.639 4.378-1.902 1.098-1.271 1.646-2.888 1.646-4.85 0-1.969-.544-3.577-1.622-4.832C3.293-1.741 1.826-2.392 0-2.392c-1.801 0-3.258.651-4.359 1.951C-5.44.814-5.976 2.422-5.976 4.391c0 1.962.541 3.579 1.633 4.85 1.098 1.263 2.542 1.902 4.343 1.902" style="fill:#231f20;fill-opacity:1;fill-rule:nonzero;stroke:none" transform="matrix(2.17753 0 0 -2.17753 890.284 865.926)"/><path d="M0 0c1.04 0 1.849.386 2.446 1.155.584.776.882 1.84.882 3.187 0 1.358-.293 2.422-.871 3.188C1.873 8.295 1.05 8.678 0 8.678c-1.049 0-1.867-.383-2.456-1.148-.592-.766-.885-1.83-.885-3.188 0-1.347.293-2.411.885-3.187C-1.867.386-1.049 0 0 0m.435 11.094c1.664 0 3.018-.617 4.052-1.844C5.51 8.014 6.025 6.379 6.025 4.342c0-2.046-.515-3.682-1.538-4.911C3.453-1.802 2.099-2.416.435-2.416c-1.498 0-2.755.548-3.776 1.645v-5.403h-2.504v16.777h2.504V9.471c1.002 1.079 2.268 1.623 3.776 1.623" style="fill:#231f20;fill-opacity:1;fill-rule:nonzero;stroke:none" transform="matrix(2.17753 0 0 -2.17753 921.246 865.818)"/><path d="M0 0v-8.516h-2.526v7.728c0 1.001-.106 1.699-.328 2.086-.274.515-.79.747-1.555.702-.718-.033-1.282-.331-1.695-.885-.405-.559-.61-1.33-.61-2.321v-7.31H-9.2v7.728c0 .992-.111 1.686-.339 2.086-.293.515-.817.747-1.582.702-.703-.033-1.257-.331-1.662-.885-.4-.559-.603-1.33-.603-2.321v-7.31h-2.499V4.012h2.499V2.785c1.067 1.205 2.249 1.766 3.536 1.671 1.231-.091 2.113-.737 2.662-1.927.977 1.288 2.158 1.927 3.535 1.927.173 0 .352-.006.543-.025 1.061-.106 1.873-.609 2.417-1.507C-.235 2.154 0 1.174 0 0" style="fill:#231f20;fill-opacity:1;fill-rule:nonzero;stroke:none" transform="matrix(2.17753 0 0 -2.17753 973.994 851.521)"/><path d="M0 0h6.559c-.112.932-.458 1.688-1.044 2.277-.584.586-1.33.879-2.236.879-.876 0-1.604-.287-2.19-.86C.506 1.724.141.961 0 0m9.279-2.226H-.043a4.038 4.038 0 0 1 1.069-2.475c.636-.702 1.387-1.054 2.253-1.054.746 0 1.401.201 1.961.601.448.329.741.704.89 1.138h2.763c-.336-1.125-.903-2.051-1.708-2.759-1.018-.896-2.307-1.349-3.863-1.349-1.743 0-3.187.651-4.338 1.95-1.15 1.3-1.724 2.917-1.724 4.85 0 1.98.555 3.615 1.671 4.895 1.116 1.29 2.571 1.928 4.367 1.928 1.758 0 3.173-.613 4.257-1.856C8.792 2.253 9.37.293 9.279-2.226" style="fill:#231f20;fill-opacity:1;fill-rule:nonzero;stroke:none" transform="matrix(2.17753 0 0 -2.17753 984.565 853.444)"/><path d="M0 0v-8.493h-2.523v7.357c0 2.023-.818 3.039-2.446 3.039-.871 0-1.593-.318-2.16-.95-.559-.639-.834-1.444-.834-2.416v-7.03h-2.507V4.035h2.507V2.856c1.06 1.078 2.278 1.623 3.645 1.623.202 0 .41-.006.623-.025 1.183-.12 2.118-.679 2.806-1.671A4.676 4.676 0 0 0 0 0" style="fill:#231f20;fill-opacity:1;fill-rule:nonzero;stroke:none" transform="matrix(2.17753 0 0 -2.17753 1032.646 851.57)"/><path d="M0 0h-1.556c-.759 0-1.433.333-2.011.993-.44.533-.666 1.351-.666 2.466v6.798h-1.423v2.249h1.423v3.877h2.549V12.53H0v-2.273h-1.684V3.828c0-.62.12-1.035.354-1.252.238-.215.68-.321 1.33-.321Z" style="fill:#231f20;fill-opacity:1;fill-rule:nonzero;stroke:none" transform="matrix(2.17753 0 0 -2.17753 1048.867 870.119)"/><path d="m0 0-36.102-134.847s33.426 44.524 72.453-.121z" style="fill:#fcd31d;fill-opacity:1;fill-rule:nonzero;stroke:none" transform="matrix(1.84496 0 0 -1.84496 408.92 10.735)"/><path d="m0 0-8.632 1.654a60.984 60.984 0 0 0-9.422-9.753l.741-9.325-11.147-6.518-6.633 5.783c-4.154-1.643-8.454-2.795-12.999-3.521l-4.127-8.47-12.918.045-2.694 8.359c-4.232.633-8.154 1.713-12.054 3.162l-7.765-5.326-11.217 6.41 1.722 8.627a63.015 63.015 0 0 0-8.905 8.682l-9.327-.803-6.601 11.111 5.728 6.686c-1.687 4.187-2.86 8.539-3.612 13.125l-8.483 4.092-.007 12.921 8.35 2.716c.695 4.676 1.906 8.989 3.574 13.266l-5.194 7.831 6.589 11.111 8.651-1.773c2.503 3.043 5.299 5.803 8.33 8.315l-.732 9.336 11.148 6.507 6.624-5.791c4.092 1.612 8.31 2.741 12.771 3.463l4.105 8.485h12.914l2.713-8.351c4.499-.677 8.652-1.832 12.79-3.417l7.811 5.253 11.151-6.514-1.744-8.634a63.298 63.298 0 0 0 8.83-8.783l9.318.692L6.13 69.486.309 62.897c1.524-3.881 2.589-7.836 3.311-12.03l8.509-4.016.12-12.921-8.325-2.8c-.603-4.267-1.64-8.213-3.045-12.132l5.402-7.714zm-58.075 117.8c-42.901 0-77.675-34.754-77.675-77.661 0-42.912 34.774-77.672 77.675-77.672 42.889 0 77.665 34.76 77.665 77.672 0 42.907-34.776 77.661-77.665 77.661" style="fill:#fcd31d;fill-opacity:1;fill-rule:nonzero;stroke:none" transform="matrix(1.84496 0 0 -1.84496 515.98 217.337)"/><path d="M0 0v-7.62h13.928v-15.129H8.294v9.806h-26.88v5.323H-5.92V0h-17.519v5.266H6.403a172.62 172.62 0 0 1 1.045 5.17 58.11 58.11 0 0 1 .796 5.843h-26.977v5.268h33.484c0-.836-.121-2.17-.366-4.015a106.312 106.312 0 0 0-.702-4.647c-.324-1.735-.592-3.176-.804-4.299a67.918 67.918 0 0 0-.699-3.32h7.079V0Z" style="fill:#231f20;fill-opacity:1;fill-rule:nonzero;stroke:none" transform="matrix(1.84496 0 0 -1.84496 43.415 390.296)"/><path d="M0 0v-11.48h-5.626v27.289H0V5.371h5.871V0Zm-8.029-18.861c-1.895.713-4.375 1.064-7.451 1.064-3.136 0-5.639-.351-7.517-1.064-1.877-.712-2.814-1.699-2.814-2.952 0-1.252.937-2.232 2.814-2.944 1.878-.71 4.381-1.071 7.517-1.071 3.076 0 5.556.361 7.451 1.071 1.895.712 2.839 1.692 2.839 2.944 0 1.253-.944 2.24-2.839 2.952m-10.65 20.995h-10.627v-6.097h10.627zm15.504-30.359c-2.833-1.671-6.95-2.503-12.351-2.503-5.369 0-9.462.832-12.274 2.503-2.814 1.67-4.223 3.829-4.223 6.465 0 2.608 1.409 4.768 4.223 6.475 2.812 1.699 6.905 2.553 12.274 2.553 5.401 0 9.518-.854 12.351-2.553 2.831-1.707 4.243-3.867 4.243-6.475 0-2.636-1.412-4.795-4.243-6.465M-34.936-9.441V14.14h5.63V7.567h10.627v6.573h5.63V-9.441Z" style="fill:#231f20;fill-opacity:1;fill-rule:nonzero;stroke:none" transform="matrix(1.84496 0 0 -1.84496 191.474 376.722)"/><path d="M0 0v-21.342h-5.636v45.915H0V5.371h6.115V0Zm-10.894 13.59a127.156 127.156 0 0 0-.606-5.973c-.32-2.712-.625-4.954-.9-6.704-.275-1.761-.428-2.691-.461-2.794h-5.577c.06.284.368 2.412.921 6.389.548 3.989.836 7.335.87 10.048h-18.532v5.268h24.6c-.033-1.91-.137-3.994-.315-6.234m-4.83-26.294c-4.591-.404-10.255-.604-16.982-.604h-4.659v5.325h8.009V5.842h5.627V-7.825c1.91 0 4.909.143 9.003.444 4.09.292 6.54.531 7.35.703v-5.225c-.97-.134-3.756-.401-8.348-.801" style="fill:#231f20;fill-opacity:1;fill-rule:nonzero;stroke:none" transform="matrix(1.84496 0 0 -1.84496 314.846 392.893)"/><path d="M0 0v-11.372h-5.626v29.219H0V5.383h5.831V0Zm-18.418-.519c-1.077.519-2.577.78-4.482.78-1.87 0-3.383-.268-4.538-.808-1.148-.538-1.724-1.274-1.724-2.218 0-.973.576-1.745 1.724-2.321 1.155-.569 2.668-.854 4.538-.854 1.905 0 3.405.29 4.482.882 1.094.593 1.637 1.37 1.637 2.343 0 .949-.543 1.675-1.637 2.196M-30.129 18.11h14.259v-4.802h-14.259ZM-5.77-28.068v9.238h-25.909v5.216H0v-14.454zm-8.324 19.805c-2.178-1.484-5.148-2.22-8.909-2.22-3.522 0-6.431.736-8.73 2.22-2.299 1.475-3.437 3.311-3.437 5.498 0 2.196 1.138 3.994 3.414 5.404 2.279 1.408 5.231 2.11 8.856 2.11 3.749 0 6.701-.702 8.86-2.11 2.142-1.41 3.22-3.208 3.22-5.404 0-2.187-1.095-4.023-3.274-5.498m-22.442 19.382h27.125V6.317h-27.125z" style="fill:#231f20;fill-opacity:1;fill-rule:nonzero;stroke:none" transform="matrix(1.84496 0 0 -1.84496 437.576 380.484)"/><path d="M0 0v4.128h-8.199c.063-.352.113-.696.143-1.047.037-.347.054-.715.054-1.095 0-.344-.017-.69-.03-1.02A6.147 6.147 0 0 0-8.153 0Zm-25.671-29.686v14.716h5.83v-9.443H6.6v-5.273zm1.191 36.264c-1.047-1.289-1.58-2.816-1.58-4.592 0-1.737.533-3.25 1.58-4.541 1.055-1.291 2.565-1.927 4.532-1.927 2.009 0 3.538.636 4.585 1.927 1.058 1.291 1.584 2.804 1.584 4.541 0 1.776-.526 3.303-1.584 4.592-1.047 1.288-2.576 1.929-4.585 1.929-1.967 0-3.477-.641-4.532-1.929M0 9.293v5.894h5.634V-18H0v12.89h-10.335c-1.068-1.396-2.427-2.51-4.074-3.363-1.656-.853-3.5-1.284-5.539-1.284-3.46 0-6.298 1.157-8.534 3.449-2.233 2.292-3.351 5.053-3.351 8.294 0 3.236 1.118 6.007 3.351 8.328 2.236 2.306 5.074 3.468 8.534 3.468 2.009 0 3.823-.414 5.442-1.229 1.617-.82 2.959-1.905 4.03-3.26z" style="fill:#231f20;fill-opacity:1;fill-rule:nonzero;stroke:none" transform="matrix(1.84496 0 0 -1.84496 553.15 375.576)"/><path d="M0 0v-19.152h-5.777V0h-17.422v5.268H6.255c.385 1.252.833 3.267 1.336 6.054.502 2.778.816 5.385.943 7.823H-18.45v5.268h33.437c0-.767-.143-2.354-.435-4.773a189.267 189.267 0 0 0-.827-6.128 61.144 61.144 0 0 0-.92-4.831 151.152 151.152 0 0 1-.769-3.413h7.459V0Z" style="fill:#231f20;fill-opacity:1;fill-rule:nonzero;stroke:none" transform="matrix(1.84496 0 0 -1.84496 656.194 396.932)"/><path d="M0 0c-1.117-1.209-2.422-2.414-3.913-3.628a26.191 26.191 0 0 0-4.972-3.217c-1.725-.844-3.11-1.466-4.145-1.848l-3.634 4.223c1.513.593 3.236 1.434 5.161 2.515C-9.575-.884-7.725.454-5.95 2.058c1.686 1.53 2.952 3.308 3.792 5.323A16.115 16.115 0 0 1-.9 13.643v3.808h6.406v-3.808c0-2.161.422-4.247 1.258-6.262.848-2.015 2.106-3.793 3.786-5.323 1.814-1.604 3.671-2.942 5.582-4.013 1.912-1.081 3.619-1.922 5.149-2.515l-3.642-4.223c-1.035.382-2.42 1.004-4.15 1.848a26.714 26.714 0 0 0-4.978 3.217C7.03-2.414 5.74-1.209 4.66 0 3.575 1.197 2.788 2.335 2.307 3.413 1.881 2.335 1.108 1.197 0 0m-19.051-21.994v5.268H-.749v8.925h6.007v-8.925h18.389v-5.268z" style="fill:#231f20;fill-opacity:1;fill-rule:nonzero;stroke:none" transform="matrix(1.84496 0 0 -1.84496 771.185 382.539)"/><path d="m0 0-3.44 9.415L-6.926 0Zm6.214-8.189H3.038L1.135-3.074h-9.201l-1.877-5.115h-3.176l7.857 21.322h3.571z" style="fill:#231f20;fill-opacity:1;fill-rule:nonzero;stroke:none" transform="matrix(1.84496 0 0 -1.84496 24.204 474.757)"/><path d="M0 0c1.254 0 2.256.424 3.003 1.27.748.842 1.123 1.982 1.123 3.422 0 1.448-.375 2.564-1.123 3.375C2.256 8.872 1.254 9.275 0 9.275c-1.233 0-2.223-.403-2.957-1.208-.744-.811-1.113-1.927-1.113-3.375 0-1.452.369-2.601 1.113-3.433C-2.223.42-1.233 0 0 0m7.139 11.634V-2.587c0-2.331-.738-4.068-2.223-5.229-1.214-.967-2.781-1.45-4.704-1.45-2.03 0-3.682.548-4.971 1.651-1.201.986-1.85 2.217-1.959 3.692h3.098c.033-.695.375-1.287 1.029-1.762.724-.525 1.668-.797 2.826-.797 2.578 0 3.865 1.244 3.865 3.729v1.851C2.83-2.27 1.287-2.949-.528-2.949c-1.939 0-3.562.728-4.867 2.182C-6.698.697-7.351 2.515-7.351 4.692c0 2.163.644 3.951 1.943 5.366 1.299 1.406 2.924 2.119 4.88 2.119 1.886 0 3.43-.632 4.628-1.879v1.336z" style="fill:#231f20;fill-opacity:1;fill-rule:nonzero;stroke:none" transform="matrix(1.84496 0 0 -1.84496 51.375 482.847)"/><path d="M0 0h8.039c-.136 1.142-.564 2.068-1.282 2.79-.712.718-1.625 1.077-2.735 1.077-1.075 0-1.972-.352-2.683-1.053C.623 2.112.176 1.177 0 0m11.373-2.727H-.049A4.944 4.944 0 0 1 1.258-5.76c.783-.86 1.706-1.291 2.764-1.291.917 0 1.72.247 2.409.736.541.404.903.863 1.083 1.394h3.382c-.404-1.377-1.104-2.512-2.09-3.379-1.249-1.098-2.829-1.653-4.733-1.653-2.13 0-3.903.797-5.313 2.389-1.41 1.592-2.115 3.573-2.115 5.942 0 2.426.683 4.429 2.05 5.997 1.364 1.581 3.15 2.362 5.349 2.362 2.155 0 3.888-.751 5.213-2.273 1.518-1.704 2.219-4.105 2.116-7.191" style="fill:#231f20;fill-opacity:1;fill-rule:nonzero;stroke:none" transform="matrix(1.84496 0 0 -1.84496 75.572 472.611)"/><path d="M0 0v-10.405h-3.094v9.013c0 2.478-.999 3.723-2.987 3.723-1.077 0-1.955-.389-2.647-1.163-.686-.783-1.028-1.77-1.028-2.961v-8.612h-3.069V4.944h3.069V3.499c1.302 1.321 2.79 1.988 4.465 1.988.252 0 .506-.007.767-.03 1.446-.147 2.595-.832 3.44-2.047A5.783 5.783 0 0 0 0 0" style="fill:#231f20;fill-opacity:1;fill-rule:nonzero;stroke:none" transform="matrix(1.84496 0 0 -1.84496 125.484 470.667)"/><path d="m0 0 3.355-.03C2.971-1.622 2.217-2.909 1.11-3.895-.143-5.056-1.695-5.634-3.545-5.634c-2.239 0-4.018.783-5.339 2.331-1.327 1.557-1.985 3.545-1.985 5.979 0 2.426.658 4.412 1.985 5.969 1.321 1.548 3.1 2.332 5.339 2.332 1.85 0 3.437-.623 4.756-1.847 1.149-1.06 1.86-2.328 2.144-3.787H.026a3.488 3.488 0 0 1-1.032 1.766c-.672.606-1.508.907-2.513.907-1.254 0-2.249-.489-2.99-1.475-.74-.986-1.11-2.282-1.11-3.865 0-1.58.376-2.865 1.126-3.858.748-.995 1.737-1.492 2.974-1.492.918 0 1.701.278 2.35.826C-.584-1.359-.199-.739 0 0" style="fill:#231f20;fill-opacity:1;fill-rule:nonzero;stroke:none" transform="matrix(1.84496 0 0 -1.84496 150.319 480.58)"/><path d="m0 0-6.743-18.028c-.425-1.118-1.059-1.899-1.904-2.359-.616-.319-1.466-.473-2.539-.454l-1.296.03v2.725H-11c.724 0 1.233.401 1.534 1.198l.607 1.625L-14.623 0h3.25l4.022-11.032L-3.203 0Z" style="fill:#231f20;fill-opacity:1;fill-rule:nonzero;stroke:none" transform="matrix(1.84496 0 0 -1.84496 184.128 461.546)"/><path d="M0 0h-2.066v-12.736h-3.118V0H-6.93v2.76h1.769v1.704c0 1.401.268 2.389.796 2.96.598.856 1.42 1.27 2.458 1.247L0 8.643V5.888c-.797 0-1.323-.119-1.59-.343-.317-.284-.476-.825-.476-1.622V2.76H0Z" style="fill:#231f20;fill-opacity:1;fill-rule:nonzero;stroke:none" transform="matrix(1.84496 0 0 -1.84496 215.455 466.367)"/><path d="M0 0c1.231 0 2.223.503 2.973 1.506.748 1.009 1.126 2.293 1.126 3.874 0 1.571-.378 2.851-1.126 3.837-.75.983-1.742 1.475-2.973 1.475-1.234 0-2.223-.492-2.964-1.475-.741-.986-1.109-2.266-1.109-3.837 0-1.581.368-2.865 1.109-3.874C-2.223.503-1.234 0 0 0m0 13.652c2.235 0 4.024-.783 5.366-2.331 1.341-1.557 2.01-3.538 2.01-5.941 0-2.413-.662-4.382-1.983-5.921C4.037-2.133 2.235-2.93 0-2.93c-2.206 0-3.986.797-5.344 2.389C-6.665.998-7.325 2.967-7.325 5.38c0 2.403.667 4.384 2.008 5.941 1.342 1.548 3.111 2.331 5.317 2.331" style="fill:#231f20;fill-opacity:1;fill-rule:nonzero;stroke:none" transform="matrix(1.84496 0 0 -1.84496 231.31 485.569)"/><path d="M0 0v-3.333c-1.045 0-1.881-.189-2.51-.564-1.518-.912-2.279-2.534-2.279-4.865v-7.277h-3.065v15.41h3.065v-1.989c.656.989 1.492 1.711 2.514 2.184.332.157.8.271 1.4.345.3.035.591.066.875.089" style="fill:#231f20;fill-opacity:1;fill-rule:nonzero;stroke:none" transform="matrix(1.84496 0 0 -1.84496 264.728 460.273)"/><path d="M0 0c2.06 0 3.66.746 4.785 2.221C5.824 3.566 6.35 5.377 6.35 7.65c0 2.236-.526 4.042-1.565 5.408C3.66 14.534 2.06 15.272 0 15.272h-3.385V0Zm.526 18.312c2.771 0 5.008-1.023 6.714-3.07 1.639-1.988 2.465-4.524 2.465-7.592 0-3.091-.826-5.62-2.465-7.592C5.552-1.988 3.31-3.009.526-3.009h-6.978v21.321z" style="fill:#231f20;fill-opacity:1;fill-rule:nonzero;stroke:none" transform="matrix(1.84496 0 0 -1.84496 298.685 484.313)"/><path d="M0 0h8.039C7.9 1.142 7.468 2.068 6.751 2.79c-.709.718-1.619 1.077-2.732 1.077-1.075 0-1.972-.352-2.683-1.053C.62 2.112.177 1.177 0 0m11.369-2.727H-.051A4.902 4.902 0 0 1 1.258-5.76c.783-.86 1.709-1.291 2.761-1.291.92 0 1.726.247 2.412.736.539.404.907.863 1.081 1.394h3.384c-.402-1.377-1.104-2.512-2.09-3.379-1.249-1.098-2.829-1.653-4.729-1.653-2.131 0-3.91.797-5.321 2.389-1.41 1.592-2.117 3.573-2.117 5.942 0 2.426.689 4.429 2.052 5.997 1.368 1.581 3.15 2.362 5.357 2.362 2.148 0 3.888-.751 5.202-2.273 1.521-1.704 2.224-4.105 2.119-7.191" style="fill:#231f20;fill-opacity:1;fill-rule:nonzero;stroke:none" transform="matrix(1.84496 0 0 -1.84496 326.875 472.611)"/><path d="M0 0h-2.066v-12.736h-3.12V0h-1.747v2.76h1.776v1.704c0 1.401.264 2.389.79 2.96.597.856 1.416 1.27 2.454 1.247L0 8.643V5.888c-.803 0-1.329-.119-1.593-.343-.32-.284-.473-.825-.473-1.622V2.76H0Z" style="fill:#231f20;fill-opacity:1;fill-rule:nonzero;stroke:none" transform="matrix(1.84496 0 0 -1.84496 363.382 466.367)"/><path d="M0 0h8.039c-.13 1.142-.565 2.068-1.279 2.79-.709.718-1.63 1.077-2.739 1.077-1.068 0-1.965-.352-2.676-1.053C.629 2.112.176 1.177 0 0m11.372-2.727H-.043A4.963 4.963 0 0 1 1.256-5.76c.791-.86 1.71-1.291 2.765-1.291.921 0 1.724.247 2.409.736.538.404.908.863 1.084 1.394h3.388c-.408-1.377-1.11-2.512-2.09-3.379C7.556-9.398 5.98-9.953 4.077-9.953c-2.132 0-3.901.797-5.318 2.389-1.403 1.592-2.112 3.573-2.112 5.942 0 2.426.679 4.429 2.053 5.997C.058 5.956 1.844 6.737 4.05 6.737c2.148 0 3.888-.751 5.21-2.273 1.511-1.704 2.22-4.105 2.112-7.191" style="fill:#231f20;fill-opacity:1;fill-rule:nonzero;stroke:none" transform="matrix(1.84496 0 0 -1.84496 371.904 472.611)"/><path d="M0 0v-10.405h-3.091v9.013c0 2.478-.999 3.723-2.989 3.723-1.074 0-1.956-.389-2.645-1.163-.689-.783-1.031-1.77-1.031-2.961v-8.612h-3.062V4.944h3.062V3.499c1.309 1.321 2.8 1.988 4.466 1.988.248 0 .512-.007.776-.03 1.446-.147 2.585-.832 3.435-2.047A5.792 5.792 0 0 0 0 0" style="fill:#231f20;fill-opacity:1;fill-rule:nonzero;stroke:none" transform="matrix(1.84496 0 0 -1.84496 421.814 470.667)"/><path d="M0 0c1.886-1.037 2.784-2.347 2.696-3.923-.072-1.403-.722-2.59-1.956-3.552-1.236-.965-2.705-1.448-4.416-1.448-2.271 0-4.041.702-5.291 2.098-.956 1.079-1.452 2.31-1.511 3.667h3.048c.085-.812.438-1.467 1.058-1.956.653-.55 1.511-.828 2.589-.828 1.905 0 2.966.609 3.169 1.818.134.725-.35 1.317-1.427 1.793-.574.27-1.436.527-2.561.765-1.251.286-2.031.491-2.324.603-2.136.758-3.144 2.138-3.017 4.149.066 1.233.64 2.294 1.714 3.185 1.172.965 2.617 1.447 4.341 1.447 1.847 0 3.362-.564 4.547-1.702 1.035-1.023 1.547-2.179 1.505-3.468h-3.01c.036.531-.192 1.012-.659 1.452-.585.525-1.388.797-2.412.797-.921 0-1.635-.184-2.161-.543-.467-.307-.702-.701-.718-1.198-.036-.489.117-.867.477-1.133.241-.189.707-.394 1.374-.596A85.1 85.1 0 0 1-2.563.881C-1.417.62-.569.319 0 0" style="fill:#231f20;fill-opacity:1;fill-rule:nonzero;stroke:none" transform="matrix(1.84496 0 0 -1.84496 445.434 474.607)"/><path d="M0 0h8.039c-.141 1.142-.572 2.068-1.286 2.79-.709.718-1.623 1.077-2.736 1.077-1.07 0-1.97-.352-2.683-1.053C.62 2.112.176 1.177 0 0m11.372-2.727H-.049A4.903 4.903 0 0 1 1.256-5.76c.784-.86 1.71-1.291 2.761-1.291.925 0 1.728.247 2.413.736.542.404.907.863 1.084 1.394h3.381C10.494-6.298 9.791-7.433 8.806-8.3c-1.25-1.098-2.827-1.653-4.729-1.653-2.132 0-3.908.797-5.318 2.389-1.413 1.592-2.118 3.573-2.118 5.942 0 2.426.685 4.429 2.052 5.997C.058 5.956 1.84 6.737 4.047 6.737c2.151 0 3.888-.751 5.206-2.273 1.518-1.704 2.22-4.105 2.119-7.191" style="fill:#231f20;fill-opacity:1;fill-rule:nonzero;stroke:none" transform="matrix(1.84496 0 0 -1.84496 459.725 472.611)"/><path d="M0 0c2.063 0 3.662.746 4.789 2.221C5.823 3.566 6.352 5.377 6.352 7.65c0 2.236-.529 4.042-1.563 5.408C3.662 14.534 2.063 15.272 0 15.272h-3.381V0Zm.529 18.312c2.768 0 5.004-1.023 6.715-3.07 1.635-1.988 2.46-4.524 2.46-7.592 0-3.091-.825-5.62-2.46-7.592C5.556-1.988 3.31-3.009.529-3.009H-6.45v21.321z" style="fill:#231f20;fill-opacity:1;fill-rule:nonzero;stroke:none" transform="matrix(1.84496 0 0 -1.84496 514.959 484.313)"/><path d="M0 0h8.036c-.14 1.142-.568 2.068-1.287 2.79-.707.718-1.621 1.077-2.732 1.077-1.073 0-1.974-.352-2.682-1.053C.62 2.112.172 1.177 0 0m11.368-2.727H-.053A4.932 4.932 0 0 1 1.253-5.76c.783-.86 1.711-1.291 2.764-1.291.921 0 1.724.247 2.413.736.538.404.904.863 1.08 1.394h3.385C10.49-6.298 9.789-7.433 8.803-8.3 7.552-9.398 5.977-9.953 4.077-9.953c-2.135 0-3.91.797-5.321 2.389-1.41 1.592-2.118 3.573-2.118 5.942 0 2.426.685 4.429 2.053 5.997C.058 5.956 1.84 6.737 4.048 6.737c2.146 0 3.887-.751 5.202-2.273 1.521-1.704 2.219-4.105 2.118-7.191" style="fill:#231f20;fill-opacity:1;fill-rule:nonzero;stroke:none" transform="matrix(1.84496 0 0 -1.84496 543.155 472.611)"/><path d="m0 0-5.532-15.349h-3.546L-14.629 0h3.28l4.04-11.368L-3.232 0Z" style="fill:#231f20;fill-opacity:1;fill-rule:nonzero;stroke:none" transform="matrix(1.84496 0 0 -1.84496 592.145 461.546)"/><path d="M0 0h8.039c-.13 1.142-.56 2.068-1.279 2.79-.708.718-1.628 1.077-2.738 1.077-1.068 0-1.968-.352-2.677-1.053C.63 2.112.176 1.177 0 0m11.373-2.727H-.042A4.938 4.938 0 0 1 1.26-5.76c.787-.86 1.707-1.291 2.762-1.291.92 0 1.723.247 2.408.736.542.404.908.863 1.084 1.394h3.391C10.494-6.298 9.792-7.433 8.813-8.3 7.557-9.398 5.977-9.953 4.08-9.953c-2.135 0-3.904.797-5.32 2.389-1.403 1.592-2.112 3.573-2.112 5.942 0 2.426.68 4.429 2.054 5.997C.059 5.956 1.841 6.737 4.051 6.737c2.148 0 3.887-.751 5.21-2.273 1.51-1.704 2.223-4.105 2.112-7.191" style="fill:#231f20;fill-opacity:1;fill-rule:nonzero;stroke:none" transform="matrix(1.84496 0 0 -1.84496 599.45 472.611)"/><path d="M758.486 90.65h5v34.916h-5z" style="fill:#231f20;fill-opacity:1;fill-rule:nonzero;stroke:none;stroke-width:1.63315" transform="matrix(1.1297 0 0 -1.1297 -231.146 592.272)"/><path d="M0 0c1.227 0 2.22.503 2.974 1.506C3.725 2.515 4.1 3.799 4.1 5.38c0 1.571-.375 2.851-1.126 3.837C2.22 10.2 1.227 10.692 0 10.692c-1.237 0-2.223-.492-2.967-1.475-.737-.986-1.113-2.266-1.113-3.837 0-1.581.376-2.865 1.113-3.874C-2.223.503-1.237 0 0 0m0 13.652c2.237 0 4.025-.783 5.363-2.331C6.708 9.764 7.381 7.783 7.381 5.38c0-2.413-.667-4.382-1.988-5.921C4.035-2.133 2.237-2.93 0-2.93c-2.206 0-3.992.797-5.34 2.389C-6.665.998-7.322 2.967-7.322 5.38c0 2.403.663 4.384 2.001 5.941 1.345 1.548 3.115 2.331 5.321 2.331" style="fill:#231f20;fill-opacity:1;fill-rule:nonzero;stroke:none" transform="matrix(1.84496 0 0 -1.84496 650.198 485.569)"/><path d="M0 0c1.274 0 2.266.473 2.997 1.415.715.951 1.08 2.254 1.08 3.904 0 1.664-.359 2.967-1.067 3.907-.715.937-1.723 1.406-3.01 1.406-1.285 0-2.288-.469-3.009-1.406-.725-.94-1.084-2.243-1.084-3.907 0-1.65.359-2.953 1.084-3.904C-2.288.473-1.285 0 0 0m.533 13.592c2.039 0 3.698-.755 4.965-2.259C6.75 9.818 7.381 7.816 7.381 5.319c0-2.506-.631-4.51-1.883-6.016C4.231-2.208 2.572-2.96.533-2.96c-1.835 0-3.376.671-4.626 2.016v-6.62h-3.068V12.99h3.068v-1.387c1.227 1.322 2.778 1.989 4.626 1.989" style="fill:#231f20;fill-opacity:1;fill-rule:nonzero;stroke:none" transform="matrix(1.84496 0 0 -1.84496 682.338 485.457)"/><path d="M0 0v-10.433h-3.094v9.468c0 1.226-.131 2.081-.402 2.555-.336.631-.969.916-1.906.86-.879-.04-1.57-.406-2.077-1.084-.495-.685-.747-1.629-.747-2.844v-8.955h-3.045v9.468c0 1.214-.137 2.065-.415 2.555-.359.631-1.001.916-1.938.86-.862-.04-1.541-.406-2.038-1.084-.489-.685-.737-1.629-.737-2.844v-8.955h-3.062V4.916h3.062V3.413c1.306 1.475 2.755 2.163 4.332 2.046 1.508-.112 2.588-.902 3.261-2.361 1.197 1.578 2.643 2.361 4.331 2.361.212 0 .431-.007.665-.03 1.3-.131 2.295-.746 2.962-1.846C-.288 2.639 0 1.438 0 0" style="fill:#231f20;fill-opacity:1;fill-rule:nonzero;stroke:none" transform="matrix(1.84496 0 0 -1.84496 737.092 470.616)"/><path d="M0 0h8.036c-.138 1.142-.562 2.068-1.28 2.79-.714.718-1.629 1.077-2.739 1.077-1.073 0-1.965-.352-2.683-1.053C.62 2.112.172 1.177 0 0m11.368-2.727H-.052A4.945 4.945 0 0 1 1.256-5.76c.78-.86 1.701-1.291 2.761-1.291.914 0 1.717.247 2.402.736.549.404.908.863 1.091 1.394h3.385C10.483-6.298 9.789-7.433 8.803-8.3 7.556-9.398 5.977-9.953 4.07-9.953c-2.135 0-3.905.797-5.315 2.389-1.409 1.592-2.112 3.573-2.112 5.942 0 2.426.68 4.429 2.047 5.997C.058 5.956 1.84 6.737 4.041 6.737c2.153 0 3.887-.751 5.215-2.273C10.771 2.76 11.48.359 11.368-2.727" style="fill:#231f20;fill-opacity:1;fill-rule:nonzero;stroke:none" transform="matrix(1.84496 0 0 -1.84496 748.065 472.611)"/><path d="M0 0v-10.405h-3.091v9.013c0 2.478-1.002 3.723-2.996 3.723-1.068 0-1.952-.389-2.647-1.163-.685-.783-1.022-1.77-1.022-2.961v-8.612h-3.071V4.944h3.071V3.499C-8.457 4.82-6.965 5.487-5.29 5.487c.247 0 .502-.007.763-.03 1.449-.147 2.595-.832 3.437-2.047A5.727 5.727 0 0 0 0 0" style="fill:#231f20;fill-opacity:1;fill-rule:nonzero;stroke:none" transform="matrix(1.84496 0 0 -1.84496 797.975 470.667)"/><path d="M0 0h-1.907c-.93 0-1.755.408-2.464 1.217-.538.652-.815 1.655-.815 3.021v8.328H-6.93v2.755h1.744v4.751h3.123v-4.72H0v-2.786h-2.063V4.69c0-.76.147-1.268.434-1.534.291-.263.833-.394 1.629-.394Z" style="fill:#231f20;fill-opacity:1;fill-rule:nonzero;stroke:none" transform="matrix(1.84496 0 0 -1.84496 814.813 489.921)"/></svg>