<svg xmlns="http://www.w3.org/2000/svg" xml:space="preserve" width="700.00348" height="700" viewBox="0 0 700.00348 699.99999"><path d="M247.21 738.518c-192.065 0-348.325 156.258-348.325 348.324s156.26 348.32 348.326 348.32c192.066 0 348.324-156.254 348.324-348.32S439.277 738.518 247.211 738.518z" style="fill:#fff;fill-rule:evenodd;stroke-width:20;stroke-linecap:round;stroke-linejoin:round" transform="matrix(.97902 0 0 .97902 107.977 -714.037)"/><path d="M0 0v47.861h-15.309v-1.832l.042-.008c4.778-.819 6.39-2.922 6.39-8.334V0Z" style="fill:#e13a12;fill-opacity:1;fill-rule:nonzero;stroke:none" transform="matrix(3.50886 0 0 -3.50886 348.448 341.294)"/><path d="M0 0h-5.953l-20.08-24.931V-.153h-15.312v-1.835l.046-.006c4.598-.589 6.388-2.925 6.388-8.331v-41.126h8.878v25.163l18.836-25.163H3.146L-18.15-22.938 0 0" style="fill:#e13a12;fill-opacity:1;fill-rule:nonzero;stroke:none" transform="matrix(3.50886 0 0 -3.50886 298.81 254.05)"/><path d="M0 0c-5.833 2.934-11.343 5.705-11.343 11.175 0 4.45 2.561 6.973 7.613 7.5 5.331.555 11.185-1.745 13.183-2.946l.077-.047v5.546l-.039.008c-2.449.574-7.642 1.542-11.562 1.542-11.197 0-18.151-5.31-18.151-13.858 0-8.786 7.256-12.486 14.274-16.066C.045-10.203 5.706-13.092 5.706-18.949c0-7.845-6.326-9.016-10.099-9.016-4.534 0-9.738 1.522-15.464 4.523l-.076.04v-6.205l.035-.012c1.622-.52 7.453-2.215 14.406-2.215 12.947 0 20.078 5.487 20.078 15.452C14.586-7.336 6.837-3.439 0 0" style="fill:#e13a12;fill-opacity:1;fill-rule:nonzero;stroke:none" transform="matrix(3.50886 0 0 -3.50886 409.777 423.773)"/><path d="M0 0h-40.839v-11.389h2.171l.004.047c.489 5.809 2.491 7.58 8.566 7.58h6.442v-47.689h8.878V-3.7H.051V0Z" style="fill:#e13a12;fill-opacity:1;fill-rule:nonzero;stroke:none" transform="matrix(3.50886 0 0 -3.50886 547.284 254.05)"/><path d="m0 0-1.974.371s.528 2.807.54 2.879c-.071.012-2.067.389-2.139.4l-1.475-7.859c.07-.012 2.069-.389 2.14-.399l.671 3.577s1.901-.359 1.973-.371C-.251-1.336-.015-.07 0 0" style="fill:#72716a;fill-opacity:1;fill-rule:nonzero;stroke:none" transform="matrix(3.50886 0 0 -3.50886 324.136 632.01)"/><path d="M0 0c.072-.014 2.066-.385 2.138-.4l1.076 5.737-9.572 1.796-.265-1.401L.814 4.336Z" style="fill:#72716a;fill-opacity:1;fill-rule:nonzero;stroke:none" transform="matrix(3.50886 0 0 -3.50886 301.928 670.737)"/><path d="M0 0a1.547 1.547 0 0 0-.996.684c-.312.467-.426 1.086-.312 1.699.117.613.446 1.15.906 1.471.362.253.781.351 1.175.277.399-.076.752-.316.999-.686.313-.465.425-1.084.31-1.699C1.867.609.933-.176 0 0m3.422 3.82-.151.198-.072.095s1.477-.278 1.548-.293c.013.072.249 1.33.263 1.399l-2.715.51s.234 1.25.25 1.319c-.072.012-2.29.429-2.36.444-.016-.072-.247-1.32-.247-1.32l-2.71.508c-.011-.07-.249-1.328-.262-1.399.073-.011 1.55-.291 1.55-.291l-.088-.047c-.864-.503-1.459-1.328-1.634-2.265A3.294 3.294 0 0 1-2.668.189a3.713 3.713 0 0 1 2.41-1.554c1-.19 1.999.015 2.813.572A3.308 3.308 0 0 1 3.96 1.332a3.307 3.307 0 0 1-.538 2.488" style="fill:#72716a;fill-opacity:1;fill-rule:nonzero;stroke:none" transform="matrix(3.50886 0 0 -3.50886 287.673 638.383)"/><path d="M0 0c.051.049.964.956 1.013 1.004L-.441 2.473S1.63 4.529 1.683 4.578C1.632 4.631.201 6.072.15 6.121.099 6.07-6.889-.854-6.94-.908c.049-.051 1.479-1.494 1.531-1.544l3.953 3.92z" style="fill:#72716a;fill-opacity:1;fill-rule:nonzero;stroke:none" transform="matrix(3.50886 0 0 -3.50886 161.3 565.841)"/><path d="m0 0-5.228 5.273s2.832 2.807 2.884 2.86l-1.53 1.545c-.052-.051-3.842-3.811-3.896-3.863.051-.052 6.708-6.765 6.757-6.817Z" style="fill:#72716a;fill-opacity:1;fill-rule:nonzero;stroke:none" transform="matrix(3.50886 0 0 -3.50886 134.229 582.817)"/><path d="M0 0c-.293.297-.45.711-.439 1.17.014.582.284 1.18.749 1.639.462.459 1.064.728 1.648.738.459.004.872-.156 1.164-.449.293-.297.448-.711.438-1.168-.012-.586-.288-1.184-.75-1.643C1.95-.568.689-.694 0 0m5.056 1.271-.012.24-.008.126L6.147.517c.049.047.958.952 1.01 1.002-.054.052-1.948 1.96-1.948 1.96s.905.894.955.945c-.05.052-1.64 1.655-1.689 1.705-.049-.05-.954-.945-.954-.945L1.583 7.142c-.05-.051-.961-.953-1.01-1.001C.622 6.09 1.684 5.02 1.684 5.02l-.101.009c-.995.08-1.956-.261-2.633-.933a3.309 3.309 0 0 1-.972-2.358A3.729 3.729 0 0 1-.919-.91C-.202-1.633.733-2.033 1.72-2.035a3.304 3.304 0 0 1 2.364.951c.621.615.969 1.452.972 2.355" style="fill:#72716a;fill-opacity:1;fill-rule:nonzero;stroke:none" transform="matrix(3.50886 0 0 -3.50886 131.005 546.79)"/><path d="m0 0 4.935-2.055L1.639-9.97l-1.678.699s2.106 5.064 2.137 5.134c-.068.028-1.872.776-1.941.807-.027-.068-2.134-5.135-2.134-5.135s-1.834.765-1.901.79c-.028-.062-.521-1.252-.549-1.315.068-.031 9.087-3.781 9.087-3.781s-1.195-2.872-1.222-2.94c.065-.029 1.94-.81 2.006-.837.03.068 3.583 8.616 3.583 8.616s1.735-.724 1.801-.75l.548 1.315c-.067.026-1.802.749-1.802.749l1.61 3.867c-.068.027-1.942.808-2.008.835l-3.968-9.539-1.556.646 3.841 9.233C7.426-1.547.786 1.215.547 1.314z" style="fill:#72716a;fill-opacity:1;fill-rule:nonzero;stroke:none" transform="matrix(3.50886 0 0 -3.50886 222.485 597.743)"/><path d="M0 0c-.038-.059-.783-1.111-.826-1.168l6.602-4.675-2.208-3.12S-4.011-3.595-4.07-3.555c-.041-.055-.783-1.103-.823-1.161l4.239-2.999-1.207-1.707-3.169 2.246c-.039-.056-.78-1.103-.822-1.16l6.567-4.652s-2.608-3.686-2.652-3.746l1.775-1.258 3.476 4.907-3.365 2.384 1.205 1.705 4.443-3.145c.041.059.782 1.106.823 1.162l-1.076.76 3.033 4.286C8.318-5.888.062-.045 0 0" style="fill:#72716a;fill-opacity:1;fill-rule:nonzero;stroke:none" transform="matrix(3.50886 0 0 -3.50886 181.235 563.532)"/><path d="m0 0 .021.038.034-.023C1.632-1.067 3.62-1.4 5.967-.977l.041.008C5.991-.898 5.725.24 5.707.301L5.674.297C3.856.093 1.43 1.042.709 2.781c0 0-.006.019-.014.037-.062-.013-2.461-.58-2.521-.592 0-.023.002-.041.002-.041.135-1.878-1.613-3.814-3.328-4.442l-.035-.012c.015-.06.283-1.198.298-1.268l.041.01C-2.56-2.857-.93-1.671 0 0" style="fill:#72716a;fill-opacity:1;fill-rule:nonzero;stroke:none" transform="matrix(3.50886 0 0 -3.50886 414.527 623.072)"/><path d="m0 0-.33 1.39-12.748-3.007.328-1.389c.073.016 5.305 1.25 5.305 1.25l.277-1.183-3.936-.928.327-1.387c.074.019 7.841 1.85 7.841 1.85l.251-1.067-7.842-1.849c.018-.07.903-3.83.922-3.902l9.98 2.354C.36-7.801.065-6.545.047-6.475c-.072-.02-7.836-1.849-7.836-1.849l-.262 1.117s7.762 1.83 7.836 1.846l-.907 3.849c-.071-.02-3.905-.924-3.905-.924l-.278 1.186L0 0" style="fill:#72716a;fill-opacity:1;fill-rule:nonzero;stroke:none" transform="matrix(3.50886 0 0 -3.50886 440.76 633.764)"/><path d="m0 0-1.036.982-5.349-5.651s-2.213 2.096-2.267 2.145l-1.495-1.578c.052-.051 3.249-3.076 3.303-3.128z" style="fill:#72716a;fill-opacity:1;fill-rule:nonzero;stroke:none" transform="matrix(3.50886 0 0 -3.50886 598.948 557.638)"/><path d="M0 0c-.284-.297-.702-.439-1.18-.391-.476.046-.959.276-1.349.649-.396.371-.651.84-.723 1.312-.075.473.041.9.325 1.2.284.301.703.441 1.179.394.48-.048.959-.279 1.352-.652C.41 1.75.588.621 0 0m4.199.02 1.034-.98L7.028.935S8.061-.041 8.11-.09c.051.053 1.448 1.529 1.497 1.578-.054.053-8.004 7.576-8.056 7.628C1.503 9.064.105 7.59.056 7.536l4.073-3.855-2.1-2.219-.062-.066-.017.43A3.283 3.283 0 0 1 .941 3.924a3.31 3.31 0 0 1-2.152.897 3.553 3.553 0 0 1-2.7-1.12c-1.323-1.4-1.307-3.576.047-4.855a3.291 3.291 0 0 1 2.147-.895l.43.008-.061-.066-1.425-1.502c.052-.051.987-.934 1.037-.983L.628-2.093l1.716-1.624c.05.052 1.445 1.528 1.498 1.58A655.82 655.82 0 0 0 2.124-.514l3.041 3.213.827-.784L4.199.02" style="fill:#72716a;fill-opacity:1;fill-rule:nonzero;stroke:none" transform="matrix(3.50886 0 0 -3.50886 555.923 554.026)"/><path d="M0 0a446.97 446.97 0 0 0-1.132-.813s-4.075 5.658-4.121 5.718l-8.202-5.909c.043-.056.794-1.102.836-1.159l6.439 4.637 3.284-4.559-7.319-5.273c.043-.057.793-1.1.835-1.157.058.045 4.097 2.952 4.097 2.952l3.545-4.924A795.07 795.07 0 0 1 .026-9.218l-3.547 4.926L.834-1.155 0 0" style="fill:#72716a;fill-opacity:1;fill-rule:nonzero;stroke:none" transform="matrix(3.50886 0 0 -3.50886 542.052 580.888)"/><path d="m0 0 2.214-4.931c.067.032 8.685 3.9 8.754 3.931-.03.063-.557 1.236-.587 1.301-.066-.031-6.769-3.04-6.769-3.04L1.984.893C1.918.863.065.031 0 0" style="fill:#72716a;fill-opacity:1;fill-rule:nonzero;stroke:none" transform="matrix(3.50886 0 0 -3.50886 463.733 632.64)"/><path d="m0 0-.012.041A4.147 4.147 0 0 1-.591 1.32l-.026.037 2.029.913.035.014.611-1.359Zm-2.608-3.262c-.369-.165-.816-.126-1.257.11-.564.298-1.068.878-1.389 1.593-.32.71-.418 1.474-.268 2.093.12.487.388.846.754 1.012.37.165.815.127 1.257-.111.559-.298 1.066-.877 1.387-1.59.594-1.328.378-2.721-.484-3.107m8.888.097c-.031.065-4.06 9.043-4.092 9.111C2.123 5.919.27 5.087.202 5.058c.032-.067.661-1.473.661-1.473l-2.547-1.144-.019.012a4.03 4.03 0 0 1-.61.349c-.994.451-2.074.463-3.033.032-1.902-.854-2.706-3.205-1.793-5.241a4.194 4.194 0 0 1 2.072-2.11c.997-.453 2.075-.467 3.036-.033.961.43 1.669 1.244 1.989 2.289.074.233.125.481.154.726l.003.021L2.642-.378l1.654-3.68c.064.03 1.918.863 1.984.893" style="fill:#72716a;fill-opacity:1;fill-rule:nonzero;stroke:none" transform="matrix(3.50886 0 0 -3.50886 473.355 609.877)"/><path d="m0 0-.209 14.864-2.176-.029c0-.074.207-14.79.209-14.866C-2.104-.028-.07-.002 0 0" style="fill:#72716a;fill-opacity:1;fill-rule:nonzero;stroke:none" transform="matrix(3.50886 0 0 -3.50886 378.842 673.762)"/><path d="M0 0c.582.088 7.489 1.426 7.374 9.533l-.021 1.504c-.074-.003-7.063-.101-7.137-.101l.019-1.428c.077 0 4.881.068 4.881.068v-.038C5.213 2.66.408 1.647-.022 1.572Z" style="fill:#72716a;fill-opacity:1;fill-rule:nonzero;stroke:none" transform="matrix(3.50886 0 0 -3.50886 337.479 661.965)"/><path d="m0 0-.554 1.901 5.435 1.583-.011.035-6.572 2.324-.56 1.918 6.837-2.565 5.322 6.614.661-2.265-4.796-5.767.01-.034 5.968 1.739.555-1.902Z" style="fill:#72716a;fill-opacity:1;fill-rule:nonzero;stroke:none" transform="matrix(3.50886 0 0 -3.50886 48.776 451.903)"/><path d="M0 0c-.426 2.484-2.251 3.469-5.196 2.964-2.946-.505-4.339-2.041-3.913-4.525.425-2.484 2.248-3.451 5.193-2.946C-.971-4.002.426-2.484 0 0m-4.25-2.555c-1.592-.273-3.82-.454-4.091 1.125C-8.615.167-6.453.739-4.862 1.012c1.592.273 3.82.453 4.094-1.143.271-1.58-1.892-2.151-3.482-2.424" style="fill:#72716a;fill-opacity:1;fill-rule:nonzero;stroke:none" transform="matrix(3.50886 0 0 -3.50886 82.2 397.176)"/><path d="m0 0-.138 1.814 2.241.168-.002.036C.872 2.503-.305 3.047-.552 4.598l1.943.147c.187-1.737.878-2.75 3.247-2.571l4.034.304L8.81.665Z" style="fill:#72716a;fill-opacity:1;fill-rule:nonzero;stroke:none" transform="matrix(3.50886 0 0 -3.50886 47.91 380.394)"/><path d="M0 0a3.71 3.71 0 0 0 .354-1.642c-.026-2.574-2.929-3.3-4.674-3.283l.052 5.131C-5.976.223-7.892-.279-7.92-3.051c-.027-2.701 1.744-3.673 4.193-3.698 3.564-.037 5.032 1.856 5.055 4.233.012 1.08-.167 1.748-.475 2.508zm-5.173-4.862c-.501.041-1.983.327-1.968 1.731.013 1.35 1.315 1.57 2.001 1.564z" style="fill:#72716a;fill-opacity:1;fill-rule:nonzero;stroke:none" transform="matrix(3.50886 0 0 -3.50886 73.646 336.237)"/><path d="m0 0 .207 1.807-5.66.649c-1.715.196-3.347.148-3.664-2.625C-9.425-2.852-8.1-3.511-6.8-3.751l.217 1.897c-1.024.189-1.887.487-1.76 1.597C-8.206.941-6.619.759-5.66.649l.773-.089c-.073-1.133-.36-4.778 2.35-5.089 1.217-.139 2.307.732 2.461 2.073C.08-1.096-.737-.241-1.222.105l.005.035zm-3.079.354C-1.586.182-1.088-1.017-1.16-1.643c-.068-.59-.635-.978-1.427-.887-1.624.186-1.556 2.244-1.525 3.002z" style="fill:#72716a;fill-opacity:1;fill-rule:nonzero;stroke:none" transform="matrix(3.50886 0 0 -3.50886 79.828 315.07)"/><path d="m0 0 .51 1.913 12.373-3.301-.51-1.913z" style="fill:#72716a;fill-opacity:1;fill-rule:nonzero;stroke:none" transform="matrix(3.50886 0 0 -3.50886 42.45 271.957)"/><path d="m0 0 .628 1.707L2.597.984l.012.034c-.511.494-1.776 1.841-1.125 3.615.522 1.419 1.965 1.58 3.167 1.138l6.064-2.226-.628-1.707-5.191 1.906c-1.046.385-2.042.578-2.359-.283C1.916 1.771 4.46.299 5.488-.079l3.433-1.26-.628-1.707z" style="fill:#72716a;fill-opacity:1;fill-rule:nonzero;stroke:none" transform="matrix(3.50886 0 0 -3.50886 60.872 257.471)"/><path d="M0 0c-.652-.364-1.352-.784-1.73-1.561-.252-.519-.302-1.215.298-1.507 1.436-.699 3.286 2.765 5.824 1.53 1.702-.828 1.772-2.465.976-4.099a6.706 6.706 0 0 0-1.351-1.886l-1.552.756c.562.307 1.433.824 1.875 1.73.457.939.145 1.572-.356 1.815-1.402.683-3.38-2.659-5.648-1.555-1.202.585-1.909 1.89-.972 3.817.403.825.984 1.423 1.2 1.658z" style="fill:#72716a;fill-opacity:1;fill-rule:nonzero;stroke:none" transform="matrix(3.50886 0 0 -3.50886 86.174 213.127)"/><path d="M0 0c-.105-.357-.32-.793-.532-1.148-.875-1.471-1.845-2.045-3.312-1.172L-8.852.662l-.699-1.176-.83.494.7 1.175-1.786 1.064-.042 2.141 2.759-1.643 1.197 2.012.829-.495-1.198-2.01 4.371-2.602c1.115-.665 1.722-.879 2.321.126.148.248.272.529.305.803z" style="fill:#72716a;fill-opacity:1;fill-rule:nonzero;stroke:none" transform="matrix(3.50886 0 0 -3.50886 120.865 203.29)"/><path d="m0 0 1.115 1.615L2.642.56 1.526-1.055Zm3.308-2.199L4.341-.703l7.268-5.024-1.034-1.495z" style="fill:#72716a;fill-opacity:1;fill-rule:nonzero;stroke:none" transform="matrix(3.50886 0 0 -3.50886 86.911 172.945)"/><path d="M0 0c-.15-.339-.425-.743-.683-1.066-1.064-1.339-2.103-1.778-3.439-.715l-4.559 3.63-.852-1.07-.755.6.852 1.071-1.627 1.295.248 2.128 2.511-2 1.458 1.831.755-.601-1.457-1.832L-3.57.104c1.016-.809 1.589-1.103 2.317-.188.18.226.342.488.412.754z" style="fill:#72716a;fill-opacity:1;fill-rule:nonzero;stroke:none" transform="matrix(3.50886 0 0 -3.50886 142.936 173.584)"/><path d="m0 0-.024-.026c.265-.659.886-2.391-.43-3.747-1.055-1.085-2.438-.646-3.357.247L-8.445.972l1.267 1.305 3.968-3.852c.799-.776 1.631-1.358 2.271-.699 1.254 1.292-.473 3.67-1.258 4.433l-2.624 2.547 1.266 1.305L2.784-.143 1.506-1.461z" style="fill:#72716a;fill-opacity:1;fill-rule:nonzero;stroke:none" transform="matrix(3.50886 0 0 -3.50886 153.504 151.184)"/><path d="M0 0c-.215-.304-.561-.646-.878-.914-1.306-1.105-2.408-1.333-3.512-.029l-3.763 4.448-1.046-.883-.622.736 1.044.884-1.343 1.587.657 2.039 2.073-2.451 1.787 1.511.624-.737-1.787-1.511L-3.48.798c.838-.992 1.342-1.393 2.236-.636.22.186.429.411.55.659z" style="fill:#72716a;fill-opacity:1;fill-rule:nonzero;stroke:none" transform="matrix(3.50886 0 0 -3.50886 181.695 136.287)"/><path d="M0 0a3.696 3.696 0 0 0-1.127-1.246C-3.234-2.725-5.517-.79-6.52.637l4.2 2.949c-.982 1.397-2.508 2.662-4.777 1.068-2.21-1.552-1.966-3.558-.558-5.563 2.048-2.916 4.441-3.004 6.385-1.638C-.385-1.926.054-1.392.491-.699zm-6.966 1.367c-.259.431-.89 1.801.258 2.608 1.106.776 2.043-.153 2.438-.714z" style="fill:#72716a;fill-opacity:1;fill-rule:nonzero;stroke:none" transform="matrix(3.50886 0 0 -3.50886 201.12 117.07)"/><path d="M0 0c2.277 1.081 2.73 3.105 1.448 5.804C.167 8.503-1.689 9.43-3.965 8.349-6.242 7.267-6.68 5.25-5.398 2.552-4.115-.148-2.276-1.082 0 0m-3.608 3.402c-.694 1.458-1.47 3.555-.023 4.243 1.463.695 2.598-1.232 3.291-2.691.692-1.458 1.469-3.555.006-4.25-1.447-.688-2.582 1.239-3.274 2.698" style="fill:#72716a;fill-opacity:1;fill-rule:nonzero;stroke:none" transform="matrix(3.50886 0 0 -3.50886 233.93 104.551)"/><path d="m0 0-1.405-.509-.329.906 1.405.51-.285.785c-.557 1.536-.784 3.269 1.924 4.252a8.699 8.699 0 0 0 1.779.428l.436-1.204c-.412.029-.951.09-1.646-.162C.492 4.503.696 3.412 1.02 2.522l.36-.995 2.284.829.33-.907L1.709.62l2.684-7.397-1.709-.621Z" style="fill:#72716a;fill-opacity:1;fill-rule:nonzero;stroke:none" transform="matrix(3.50886 0 0 -3.50886 244.073 69.421)"/><path d="M0 0c-.491.17-1.862.53-3.188.274-1.079-.207-1.716-.991-1.534-1.939.509-2.643 6.242-1.463 6.999-5.4.509-2.643-1.271-4.063-3.728-4.536-1.379-.265-2.786-.196-3.185-.122l-.375 1.95c.61-.222 2.176-.733 3.608-.458 1.272.245 2.087.969 1.842 2.245-.555 2.879-6.266 1.59-7.02 5.509-.394 2.041.846 3.508 3.374 3.995 1.131.218 2.379.213 2.874.213z" style="fill:#72716a;fill-opacity:1;fill-rule:nonzero;stroke:none" transform="matrix(3.50886 0 0 -3.50886 302.35 42.853)"/><path d="M0 0c-.711-.341-1.467-.576-2.238-.644-2.708-.237-4.434 1.307-4.721 4.58-.23 2.625.793 4.355 3.249 4.57 2.296.201 3.179-.988 3.337-2.8l-1.901-.167c-.093 1.054-.309 2.283-1.439 2.184-1.041-.091-1.468-1.396-1.328-2.986C-4.853 2.593-3.759.21-1.57.402c.519.046 1.01.22 1.495.467z" style="fill:#72716a;fill-opacity:1;fill-rule:nonzero;stroke:none" transform="matrix(3.50886 0 0 -3.50886 338.565 76.754)"/><path d="m0 0 1.962.024.023-1.856-1.962-.023Zm.121-3.97 1.818.022.108-8.834-1.818-.022z" style="fill:#72716a;fill-opacity:1;fill-rule:nonzero;stroke:none" transform="matrix(3.50886 0 0 -3.50886 343.294 32.734)"/><path d="M0 0a3.705 3.705 0 0 0-1.659-.261c-2.568.172-3.13 3.112-3.014 4.852l5.12-.342C.562 5.952.168 7.895-2.599 8.08c-2.694.18-3.765-1.534-3.929-3.978-.239-3.556 1.57-5.128 3.941-5.287 1.077-.072 1.755.069 2.53.333zm-4.561 5.439c.069.498.438 1.961 1.838 1.868 1.347-.091 1.495-1.403 1.449-2.088z" style="fill:#72716a;fill-opacity:1;fill-rule:nonzero;stroke:none" transform="matrix(3.50886 0 0 -3.50886 381.155 74.97)"/><path d="m0 0 1.791-.322-.372-2.064.036-.006c.398.589 1.506 2.068 3.366 1.734C6.31-.926 6.719-2.319 6.491-3.58L5.35-9.937l-1.79.322.978 5.443c.196 1.096.215 2.111-.689 2.274-1.772.318-2.78-2.442-2.974-3.52L.228-9.017l-1.79.322z" style="fill:#72716a;fill-opacity:1;fill-rule:nonzero;stroke:none" transform="matrix(3.50886 0 0 -3.50886 392.72 49.23)"/><path d="M0 0c-.787-.059-1.578-.001-2.32.216-2.609.766-3.654 2.832-2.729 5.985.742 2.529 2.325 3.766 4.692 3.072 2.21-.648 2.598-2.078 2.086-3.823l-1.831.537c.298 1.015.544 2.239-.544 2.557-1.002.295-1.876-.764-2.325-2.295-.606-2.067-.454-4.683 1.654-5.302C-.816.8-.297.783.245.837Z" style="fill:#72716a;fill-opacity:1;fill-rule:nonzero;stroke:none" transform="matrix(3.50886 0 0 -3.50886 439.65 91.218)"/><path d="M0 0a3.68 3.68 0 0 0-1.658.271c-2.386.966-2 3.933-1.345 5.55l4.755-1.925c.641 1.582.874 3.55-1.695 4.591-2.503 1.013-4.056-.28-4.976-2.551C-6.257 2.633-5.03.575-2.828-.317-1.827-.722-1.14-.8-.32-.792Zm-2.633 6.592c.222.451 1.029 1.726 2.33 1.2C.949 7.285.679 5.993.42 5.356Z" style="fill:#72716a;fill-opacity:1;fill-rule:nonzero;stroke:none" transform="matrix(3.50886 0 0 -3.50886 465.525 98.102)"/><path d="m0 0 1.548-.954 2.987 4.853c.905 1.47 1.554 2.967-.823 4.431-2.3 1.415-3.459.494-4.227-.581l1.625-1c.607.847 1.243 1.501 2.194.916 1.026-.632.189-1.991-.317-2.813l-.408-.664c-.995.547-4.176 2.353-5.606.03-.642-1.044-.315-2.4.835-3.108C-1.027.393.094.771.612 1.062l.031-.019Zm1.625 2.64C.837 1.359-.46 1.417-.996 1.747c-.506.311-.617.99-.198 1.67.856 1.39 2.691.457 3.364.107z" style="fill:#72716a;fill-opacity:1;fill-rule:nonzero;stroke:none" transform="matrix(3.50886 0 0 -3.50886 497.413 120.242)"/><path d="m0 0 1.431-1.121L.137-2.772l.028-.022c.628.333 2.299 1.122 3.787-.044 1.19-.933.899-2.355.109-3.363L.076-11.284l-1.431 1.121L2.057-5.81c.686.877 1.177 1.766.455 2.332-1.417 1.111-3.6-.857-4.275-1.719L-4.02-8.075l-1.43 1.122z" style="fill:#72716a;fill-opacity:1;fill-rule:nonzero;stroke:none" transform="matrix(3.50886 0 0 -3.50886 528.537 103.652)"/><path d="m0 0 1.291-1.281 9.019 9.092-1.291 1.281-3.66-3.69-.026.026c.161.52.457 1.56-.579 2.586-1.609 1.598-3.672.873-5.542-1.011-1.79-1.805-2.718-3.814-.966-5.551C-.771.476.396.809.994 1.053l.026-.025Zm.618 5.608c1.085 1.094 2.714 2.302 3.724 1.3C5.453 5.805 4.145 4.28 3.06 3.187 2.027 2.146.488.901-.573 1.954-1.608 2.98-.414 4.567.618 5.608" style="fill:#72716a;fill-opacity:1;fill-rule:nonzero;stroke:none" transform="matrix(3.50886 0 0 -3.50886 546.945 160.631)"/><path d="m0 0-1.751 2.444.996.714L3.9-3.34l-.996-.714-1.751 2.445-9.414-6.746-1.153 1.61z" style="fill:#72716a;fill-opacity:1;fill-rule:nonzero;stroke:none" transform="matrix(3.50886 0 0 -3.50886 603.947 165.344)"/><path d="M0 0a3.699 3.699 0 0 0-1.143 1.231c-1.291 2.228.835 4.333 2.345 5.208L3.774 2c1.478.856 2.871 2.266 1.48 4.665C3.899 9.002 1.88 8.934-.24 7.706c-3.083-1.787-3.379-4.164-2.187-6.221C-1.886.551-1.392.067-.738-.429Zm1.968 6.82c.451.221 1.872.731 2.575-.484.678-1.168-.329-2.022-.924-2.366Z" style="fill:#72716a;fill-opacity:1;fill-rule:nonzero;stroke:none" transform="matrix(3.50886 0 0 -3.50886 596.6 222.07)"/><path d="M0 0c-.559.558-1.031 1.193-1.351 1.898-1.124 2.475-.242 4.617 2.749 5.975 2.401 1.089 4.371.699 5.391-1.546.953-2.098.124-3.325-1.532-4.077l-.789 1.737c.964.438 2.051 1.05 1.582 2.083-.432.951-1.805.92-3.258.261C.831 5.44-1.051 3.616-.143 1.616.073 1.141.4.735.794.361Z" style="fill:#72716a;fill-opacity:1;fill-rule:nonzero;stroke:none" transform="matrix(3.50886 0 0 -3.50886 605.38 248.635)"/><path d="m0 0 .569-1.727-5.762-1.901.01-.035c.707-.069 2.536-.338 3.128-2.134.474-1.436-.557-2.458-1.773-2.859l-6.134-2.024-.569 1.727 5.252 1.733c1.057.348 1.959.816 1.671 1.688-.564 1.71-3.472 1.281-4.512.938l-3.472-1.145-.57 1.726z" style="fill:#72716a;fill-opacity:1;fill-rule:nonzero;stroke:none" transform="matrix(3.50886 0 0 -3.50886 649.031 239.354)"/><path d="m0 0 .358-1.783-2.055-.414.007-.035c.693-.154 2.476-.64 2.848-2.494C1.457-6.208.312-7.1-.944-7.353l-6.331-1.273-.36 1.782 5.422 1.091c1.092.22 2.043.576 1.861 1.477-.355 1.765-3.293 1.688-4.366 1.472l-3.585-.721-.358 1.782z" style="fill:#72716a;fill-opacity:1;fill-rule:nonzero;stroke:none" transform="matrix(3.50886 0 0 -3.50886 646.502 278.413)"/><path d="M0 0c.21-2.512 1.944-3.649 4.922-3.401C7.9-3.152 9.421-1.742 9.211.77c-.209 2.511-1.942 3.631-4.92 3.382C1.314 3.904-.209 2.512 0 0m4.456 2.179c1.61.134 3.845.122 3.979-1.474.134-1.615-2.069-1.998-3.678-2.132C3.148-1.562.912-1.549.776.065c-.132 1.597 2.071 1.979 3.68 2.114" style="fill:#72716a;fill-opacity:1;fill-rule:nonzero;stroke:none" transform="matrix(3.50886 0 0 -3.50886 622.238 327.765)"/><path d="M444.657 194.014H431.85v1.818h12.807z" style="fill:#72716a;fill-opacity:1;fill-rule:nonzero;stroke:none" transform="matrix(3.50886 0 0 -3.50886 -891.39 1034.712)"/><path d="M0 0c-.21-2.512 1.31-3.922 4.288-4.171C7.266-4.42 9-3.283 9.21-.771c.21 2.512-1.313 3.904-4.291 4.152C1.942 3.631.209 2.511 0 0m4.755 1.408C6.364 1.274 8.567.891 8.434-.707c-.136-1.614-2.372-1.626-3.981-1.491C2.844-2.064.641-1.68.776-.065c.133 1.596 2.37 1.608 3.979 1.473" style="fill:#72716a;fill-opacity:1;fill-rule:nonzero;stroke:none" transform="matrix(3.50886 0 0 -3.50886 622.245 373.767)"/><path d="m0 0 .355 1.784-1.419.282.006.036c.628.113 1.783.489 2.057 1.866.481 2.419-1.354 3.556-3.812 4.045-2.548.508-4.609-.054-5.053-2.279-.288-1.448.396-2.098.765-2.428l-.006-.036-.948.189c-1.91.381-3.215.86-2.842 2.732.228 1.148 1.135 1.995 1.593 2.492l-1.801.359c-.291-.604-.614-1.274-.829-2.351-.671-3.372 1.085-4.53 3.524-5.015zm-3.2 6.071c1.402-.279 3.223-.917 2.938-2.347C-.557 2.241-2.528 2.413-3.966 2.7c-1.438.285-3.249.793-2.939 2.348.281 1.412 2.23 1.317 3.705 1.023" style="fill:#72716a;fill-opacity:1;fill-rule:nonzero;stroke:none" transform="matrix(3.50886 0 0 -3.50886 646.742 422.07)"/><path d="m0 0 9.505.469-.566-1.803-6.696-.257-.01-.034 5.416-3.814-.512-1.632L-3.761.975l.438 1.39z" style="fill:#72716a;fill-opacity:1;fill-rule:nonzero;stroke:none" transform="matrix(3.50886 0 0 -3.50886 611.787 430.442)"/><path d="M0 0a2.981 2.981 0 0 0-2.984-2.98 2.98 2.98 0 1 0 0 5.964A2.985 2.985 0 0 0 0 0" style="fill:#72716a;fill-opacity:1;fill-rule:nonzero;stroke:none" transform="matrix(3.50886 0 0 -3.50886 100.073 492.388)"/><path d="M0 0a2.98 2.98 0 0 0-2.983-2.98A2.98 2.98 0 0 0-5.968 0 2.984 2.984 0 1 0 0 0" style="fill:#72716a;fill-opacity:1;fill-rule:nonzero;stroke:none" transform="matrix(3.50886 0 0 -3.50886 612.322 492.388)"/><path d="M0 0c0 37.468 30.481 67.95 67.95 67.95 37.468 0 67.949-30.482 67.949-67.95S105.418-67.95 67.95-67.95C30.481-67.95 0-37.468 0 0m-1.921 0c0-38.526 31.345-69.87 69.871-69.87 38.527 0 69.869 31.344 69.869 69.87S106.477 69.87 67.95 69.87C29.424 69.87-1.921 38.526-1.921 0" style="fill:#7d7873;fill-opacity:1;fill-rule:nonzero;stroke:none" transform="matrix(3.50886 0 0 -3.50886 111.572 350.002)"/><path d="M-75.837 26.759C-75.837 170.809 41.36 288 185.41 288c144.05 0 261.243-117.193 261.243-261.242 0-144.05-117.194-261.24-261.243-261.24-144.05 0-261.246 117.19-261.246 261.24m-6.881 0c0-147.845 120.279-268.125 268.127-268.125 147.845 0 268.127 120.28 268.127 268.125S333.254 294.885 185.409 294.885C37.56 294.885-82.718 174.604-82.718 26.76" style="fill:#7d7873;fill-opacity:1;fill-rule:nonzero;stroke:none;stroke-width:2.68804" transform="matrix(1.30536 0 0 -1.30536 107.977 384.931)"/></svg>