<svg xmlns="http://www.w3.org/2000/svg" xml:space="preserve" width="1000" height="600.50201" overflow="visible" style="overflow:visible" viewBox="0 0 999.99997 600.50204"><g style="overflow:visible;fill:#002e6b"><path d="M26.685 126.014H14.269v10.494H8.504v-25.422h5.765v10.051h12.416v-10.051h5.617v25.422h-5.617zM178.635 111.086v25.422h5.617v-25.422z" style="clip-rule:evenodd;fill:#002e6b;fill-rule:evenodd" transform="matrix(5.68996 0 0 5.68996 -48.387 -176.224)"/><path d="M70.288 135.801c0 2.968-.539 3.777-3.24 3.777H48.42v-37.524H38.161v46.432h33.747s8.639-.539 8.639-10.256v-36.176h-10.26v33.747zM122.122 148.486h10.53V112.31c0-9.717-8.91-10.256-8.91-10.256H89.995v46.432h10.53v-37.524h18.359c2.7 0 3.238.809 3.238 3.78v33.744z" style="clip-rule:evenodd;fill:#002e6b;fill-rule:evenodd" transform="matrix(3.11535 0 0 3.11535 199.867 137.917)"/><path d="M45.752 136.508h5.618v-9.164l10.938-16.258h-7.096l-6.799 10.789-6.799-10.789h-6.947l11.085 16.406z" style="clip-rule:evenodd;fill:#002e6b;fill-rule:evenodd" transform="matrix(5.68996 0 0 5.68996 -48.387 -176.224)"/><path d="M141.83 148.486h33.206c8.909 0 9.718-9.178 9.718-9.178v-28.074s-.81-9.178-9.718-9.178h-33.207zm32.395-12.685s0 3.777-3.239 3.777h-18.898v-28.616h18.898c3.239 0 3.239 3.78 3.239 3.78zM237.67 102.054v46.432h-10.53v-13.5h-23.218v13.5h-10.259v-34.553c0-12.421 11.339-11.879 11.339-11.879zm-10.53 24.297v-15.39h-19.71s-3.508 0-3.508 4.32v11.07zM215.531 15.933c0 32.936-53.454 59.932-119.056 59.932-65.872 0-119.056-26.996-119.056-59.932 0-33.207 53.184-60.203 119.056-60.203 65.602 0 119.056 26.996 119.056 60.203zM90.806 7.563c10.26-1.89 20.248-5.398 28.078-8.368 25.376-8.91 37.253-18.087 39.684-20.248 3.24-2.97.811-4.049-2.158-5.13-17.28-5.13-43.466-8.91-60.203-8.099-12.15.269-18.898 13.5-21.598 19.169C61.92 11.613 84.596 8.914 90.806 7.564ZM13.055 45.359c.539-1.08 20.516-47.785 44.004-73.161 2.968-2.7-.27-3.24-4.05-2.431-38.873 7.561-65.871 25.38-65.871 45.898 0 11.339 8.098 21.868 21.597 30.237 1.89 1.079 3.78.268 4.32-.543zm88.82-21.325c-10.26 1.89-20.249 5.399-28.079 8.368C48.42 41.311 36.541 50.76 34.112 52.92c-3.24 2.7-.811 4.049 2.159 4.86 17.278 5.128 43.465 8.907 60.202 8.368 12.148-.538 18.899-13.769 21.868-19.438 12.42-26.728-10.257-23.758-16.467-22.677Zm103.667-8.1c0-11.339-7.83-21.598-21.597-29.967-1.889-1.35-3.509-.54-4.32.54-.538.808-20.516 47.514-44.004 72.89-2.701 2.97.269 3.509 4.05 2.7 38.875-7.829 65.871-25.645 65.871-46.163z" style="clip-rule:evenodd;fill:#002e6b;fill-rule:evenodd" transform="matrix(3.11535 0 0 3.11535 199.867 137.917)"/></g></svg>