<svg xmlns="http://www.w3.org/2000/svg" xml:space="preserve" width="1000" height="332.026" x="0px" y="0px" viewBox="0 0 999.99999 332.02601"><path d="M999.38-36.577c13.622 78.066-198.9 180.301-474.735 228.343C248.844 239.807 14.217 215.429.617 137.33c-13.59-78.077 198.988-180.279 474.79-228.31C751.218-139.041 985.8-114.664 999.38-36.576" style="fill:#1428a0" transform="translate(0 115.628)"/><path d="m67.34 17.745-.129-7.389h2.33v9.313h-3.35l-2.325-7.643h-.05l.129 7.643H61.63v-9.313h3.495l2.163 7.389zM24.987 11.228l-1.289 8.539h-2.541l1.745-9.411h4.186l1.737 9.411h-2.531l-1.254-8.539zM34.743 19.767l-1.574-8.461h-.051l-.059 8.461h-2.357l.208-9.411h3.84l1.162 7.194h.05l1.163-7.194h3.838l.204 9.411h-2.352l-.062-8.461h-.049l-1.573 8.461z" style="fill:#fff" transform="translate(.002 -.003)scale(10.98592)"/><path d="M188.893 72.36c1.011 2.504.704 5.723.231 7.668-.868 3.438-3.197 6.943-10.074 6.943-6.482 0-10.415-3.713-10.415-9.393V67.57h-27.728l-.022 8.008c0 23.049 18.149 30.003 37.594 30.003 18.698 0 34.1-6.394 36.55-23.62 1.252-8.931.319-14.776-.11-16.984-4.361-21.642-43.603-28.102-46.525-40.208-.495-2.077-.352-4.274-.11-5.45.714-3.295 2.977-6.932 9.448-6.932 6.042 0 9.612 3.736 9.612 9.382v6.383h25.784v-7.261c0-22.522-20.214-26.037-34.858-26.037-18.39 0-33.42 6.075-36.166 22.906-.747 4.647-.856 8.788.231 13.974 4.515 21.126 41.241 27.245 46.558 40.626M525.085 72.173c1.021 2.483.692 5.614.23 7.558-.846 3.428-3.153 6.877-9.986 6.877-6.394 0-10.294-3.713-10.294-9.26l-.022-9.921h-27.442l-.033 7.899c0 22.818 17.983 29.706 37.23 29.706 18.501 0 33.76-6.306 36.166-23.378 1.253-8.866.363-14.634-.087-16.798-4.34-21.444-43.186-27.838-46.075-39.824-.495-2.065-.352-4.24-.1-5.35.737-3.318 2.956-6.866 9.36-6.866 5.988 0 9.482 3.647 9.482 9.25v6.317H549.1v-7.185c0-22.28-20.05-25.773-34.55-25.773-18.183 0-33.09 5.999-35.782 22.708-.747 4.581-.824 8.646.242 13.81 4.449 20.906 40.812 26.98 46.075 40.23zM611.928 86.06c7.174 0 9.415-4.967 9.91-7.504.208-1.12.263-2.615.241-3.955V-1.905h26.147V72.26c.055 1.9-.132 5.811-.22 6.789-1.835 19.302-17.094 25.564-36.089 25.564-19.016 0-34.287-6.262-36.1-25.564-.087-.978-.274-4.889-.22-6.79V-1.904h26.125V74.6c0 1.34.044 2.845.242 3.955.56 2.537 2.736 7.503 9.964 7.503M827.604 84.971c7.492 0 10.107-4.734 10.59-7.492.187-1.186.242-2.626.231-3.933V58.54h-10.612V43.445h36.66v27.75c-.022 1.934-.066 3.362-.374 6.811-1.725 18.808-18.039 25.52-36.363 25.52-18.358 0-34.65-6.712-36.397-25.52-.296-3.45-.34-4.877-.373-6.81l.022-43.538c0-1.835.23-5.087.428-6.811 2.296-19.325 17.962-25.543 36.32-25.543 18.335 0 34.386 6.185 36.286 25.543.34 3.295.231 6.81.231 6.81v3.45h-26.07v-5.79c.022.012-.033-2.46-.34-3.932-.44-2.285-2.428-7.536-10.305-7.536-7.536 0-9.744 4.965-10.294 7.536-.318 1.362-.44 3.208-.44 4.878v47.283c-.021 1.307.056 2.747.265 3.933.45 2.768 3.054 7.492 10.535 7.492" style="fill:#fff" transform="translate(0 115.628)"/></svg>