<?xml version="1.0" encoding="utf-8"?>
<!-- Generator: Adobe Illustrator 27.9.0, SVG Export Plug-In . SVG Version: 6.00 Build 0)  -->
<svg version="1.1" xmlns="http://www.w3.org/2000/svg" xmlns:xlink="http://www.w3.org/1999/xlink" x="0px" y="0px" width="1033px"
	 height="565px" viewBox="0 0 1033 565" style="enable-background:new 0 0 1033 565;" xml:space="preserve">
<style type="text/css">
	.st0{fill:#316777;}
	.st1{display:none;}
	.st2{display:inline;fill:#FFFFFF;}
	.st3{display:inline;fill:#6CC1D7;}
	.st4{display:inline;fill:#316777;}
	.st5{display:inline;fill:#204451;}
	.st6{display:inline;fill:#0F1829;}
</style>
<g id="Layer_1">
	<g>
		<path class="st0" d="M162.1,220.8c-31.4-8.9-81.5-20.7-136.4-6c-10.2,2.7-17.1,7.2-22,15.7c-2.4,4.3-4.6,8.9-3.4,13.6
			c1,4,6.8,5.4,11.3,6.1c4.4,0.7,14.4,1.2,17.1-2c1.4-1.7,1.4-6.4-5.9-7.9c-2.7-0.6-10.1-0.8-10.6-2.1c0,0,0.3-0.9,4.3-2.1
			c1.8-0.6,14.9-5.9,50.6-4.8c42.5,1.4,79.6,11.3,118.9,26.7c38.4,15.1,81.6,42.4,106.9,75c9.6,12.3,21.5,32.5,23,49.6
			c3.8,41.4-36.6,76.2-118.7,73.4c-14-0.5-31.1-3.8-31.1-3.8l-1.7-79.8c0,0,34.7-0.3,73.2,12.4c3.3,1.1,6.6,3.2,6.9,6.4
			c0.2,2.4-1.7,4.5-3.9,6.4c-4,3.5-9.5,5-10.7,6.5c-0.9,1.1-0.9,2.7,0.3,3.6c2.9,2.2,10,3.7,14.8,3.3c9.7-0.9,16.1-6.4,21-13.8
			c5.2-7.8,8.1-27.7-19.5-40.3c-35.7-16.4-82.3-13.3-82.3-13.3s-0.2-10.8-0.7-18c-0.8-11.8-4.1-35.1-14.9-41.7
			c-2-1.2-4.4-1.4-5.8,0.5c-2.1,2.7-4.2,13.1-4.6,15.8c-4.1,24.2-3.8,45.8-4.1,46.1c-0.1,0.1-0.2,0.3-0.4,0.4
			c-0.4,0.3-26.2,3.3-51.1,14.1c-9.9,4.3-24.1,12-28.4,22c-5.6,12.9,4.2,27,20.7,42.6c14,13.2,34.6,27.1,49.8,34.3
			c3.9,1.8,8.5,4.1,8.5,4.1s1,9.2,1.8,14.6c2.9,19.2,17.5,16.4,21.6,15.6c6.6-1.3,7.8-5.7,8.7-10.8c0.5-2.8,0.3-6.8,0.3-6.8
			s9.9,2.3,16.6,3.5c19.4,3.6,40.5,4.2,58.7,1.7c73-10,91.4-44.3,97.3-53.5c10.1-16,31.6-60.4-33-126.4
			C290.4,286.5,247.8,245,162.1,220.8L162.1,220.8z M65.7,400.7c-2.7-2.7-4.7-5.7-4.1-9.3c0.6-3.5,7.4-6.5,10.8-7.5
			c32.9-9.7,60.9-10.2,60.9-10.2s-0.3,11.8-0.3,23.7c-0.1,22.6,0.5,45.6,0.5,45.6S96.3,432.2,65.7,400.7L65.7,400.7z"/>
		<path class="st0" d="M400.3,317.6c15.4-6,27.4-14.7,39.4-27.1c7.1-7.2,13.2-18.9,11-29.7c-1.1-5.3-3.6-9-8-12.9
			c-2.2-1.9-7.3-4.6-11.4-5.4c-1.2-0.2-2.5-0.3-3-0.7c-0.6-0.4-1.1-1.1-1.6-1.9c-2.7-3.4-8.1-6.7-11.9-8c-11.8-4.1-27.7-1-38.4,3.5
			c-11.4,4.8-21.9,11.9-29.9,20.5c-21,22.5-11.8,40.3-9.9,43.6c1.6,2.8,4.5,5.8,5.2,8.8c0.4,1.7,0,4,0.1,6.1
			c0.1,4.7,2.2,9.6,5.8,12.7c2.5,2.2,6.2,2.9,9.9-2.7c1.2-1.9,3.3-5.7,3.3-5.7s4.3,2.5,14.6,3.2C383,322.5,393.5,320.2,400.3,317.6z
			 M350.8,290.4c0,0-0.7-1.5-1.2-2.6c-3.2-7.9,3.8-16.8,10.2-22.2c12.5-10.6,23.1-10.4,23.1-10.4s-2.5,2-4.6,3.9
			C360.1,275,350.8,290.4,350.8,290.4z M378.1,290.1c7.6-9.8,21.7-22,31.6-27.9c7.7-4.6,14.4-5.9,19.3-3.7c3,1.3,5.3,4,5.7,7.5
			c1.3,11.1-11.5,20.3-20,25.3c-19.4,11.3-42.4,8.8-43,7.7C371.6,298.9,376.4,292.4,378.1,290.1L378.1,290.1z"/>
		<path class="st0" d="M841.1,350.3c-24.8-17.2-64.7,37.2-82.3,64.2c-2.6-13.7,6.7-31.2,6.7-31.2s14.9-25.8,17-31
			c2-5.3,3.2-16.1,0.7-17.2c-2.3-1.1-6.3,2.4-6.3,2.4c-33.5,30-38.2,63.3-38.2,63.3c-3.2,17.9,0.5,30.5,6,39.3
			c-18.6,39.6-27.7,74.2-25.3,94.6c2.3,15.6,13.4,26.8,20.2,29.2c6.8,2.8,8.1-5.4,8.1-5.4c5.5-42.3,15.2-70.5,26.7-98.4
			c34.9,8,61.2-25.9,70.5-42.2c5.5-9.7,8.4-22.7,8.4-35C853.3,369.2,849.4,356.2,841.1,350.3L841.1,350.3z M818.4,417.7
			c-4,3.8-17.3,11.3-31,12.8c13.1-25.4,29.4-44.1,38.4-54c10.5-11.8,11.9-1.1,11.9-1.1C840.1,396.2,824.9,411.9,818.4,417.7
			L818.4,417.7z"/>
		<path class="st0" d="M726.4,437.8c1.7-6.3-4.1-13.3-9.3-14.6c-4.9-1-42.3,6-46.8,7.2c-4.8,1.3-2.7-3.2-2.7-3.2l5.8-19.6
			c0,0,35.8-1.4,41-2.2c4.8-0.9,5.1-4.3,5.1-4.3s0.6-5.6,0.4-10.8c-0.5-5.6-5-5.1-5-5.1c-13.8-1.4-32.8,0.2-32.8,0.2l4.8-15
			c0,0,38-1.8,52.5-5.2c7.4-1.8,3.1-9,3.1-9c-9-18-19.4-17-19.4-17c-29.9-1-73.4,6.9-78.1,9.3c-4.4,2-4,5.3,1.8,12.6
			c6.2,7.7,16.7,7,16.7,7l-9.2,18.9c-7.5,0.5-10.1,2.9-10.1,2.9c-4.3,4.6,1.6,18.2,1.6,18.2s-13,29.1-3.6,44.5
			c10.1,16.1,22.1,15.4,22.1,15.4C687,469.4,724.4,445.6,726.4,437.8L726.4,437.8z"/>
		<path class="st0" d="M595.7,322.2c0,0-5.3-2.5-6.6,2.8c-1.3,5.2,0.7,10.8,0.7,10.8c13.2,44.7,16.2,71.1,16.2,71.1s0.6,7.8-0.9,8.2
			c-1.1,0.8-2.2-0.3-2.2-0.3c-1.5,0.1-16-24.2-16-24.2l-2.8-4.7c-15.9-25.6-25.6-34.4-25.6-34.4c-2.3-2.1-8-7.9-15.3,0.1
			c-7.2,8-12.9,33.9-15.1,58.2c-1.9,24.3-0.5,38.1,3.1,43.9c3.9,5.9,11.4,7.9,17.6,2.9c6.6-5,5.3-37,6.4-53.4
			c1-16.5,2.6-13.5,2.6-13.5c1.4-0.4,9,14.7,9,14.7s19.8,40.4,32.2,46.4c12.6,6,22.7-3.6,26.5-12.6c3.9-9.1,10.5-39.1,0.7-72.3
			C616.1,332.4,595.7,322.2,595.7,322.2L595.7,322.2z"/>
		<path class="st0" d="M390.2,407.7c-0.5-11.1-1.8-39.3-4.9-52.1c-1.3-5.5-3.6-10.5-9-12.6c-0.6-0.2-1.3-0.4-1.8-0.5
			c-3.4-0.7-5.3,4-6.2,6.3c-2.7,6.9-4.6,23.2-5.1,28.3c-1.6,15.5-2.9,52.1-0.2,70.8c1.1,7.8,3.7,12.9,11.6,14.6
			c3.2,0.7,9.1,0.5,11.6-1.1c2.2-1.4,3.8-4.1,4.3-6.5c1.5-6.5,0.9-15.7,0.6-22.7C390.8,424.2,390.6,416,390.2,407.7L390.2,407.7z"/>
		<path class="st0" d="M518.1,346c-17.1-9.1-45.2-9.1-62.7-6.9c-18,2.2-42.1,7.8-52.3,22.6c-3.9,5.6-6.2,14.3-4.4,21.3
			c1,3.9,3.8,6.9,7.9,9c7.3,3.8,31.6,4.6,42.4,5.8c10.2,1.1,29,2.9,39.4,7.2c0,0,9.8,3.4,9.7,9c0,2.8-2.1,5-4.2,6.5
			c-15.4,10.9-36.5,14-55.3,13.7c-6.4-0.1-11.6-1.1-18.1-3.9c-2.8-1.2-6.3-3.4-5.8-7.2c0.8-6,7.7-7.5,13.1-7c3.1,0.3,7,1.6,10,2.7
			c12.1,4.8,17.6,8.8,28.2,7.1c4-0.6,17.7-3.6,19.5-9.2c0.5-1.4-0.2-2.9-1.2-3.9c-1.4-1.5-9.7-4.7-11.9-5.5
			c-8.1-2.9-23.4-5.5-31.9-5.8c-11.2-0.4-26.5,1.9-32.9,11.1c-5.7,8.3-7,25.1,21.5,39.3c13.2,6.6,29.3,9.5,44.1,7.9
			c8.5-1,32.8-4.8,42-24.1c5-10.4,4.5-24.3-0.9-34.2c-3.5-6.5-7.8-15.2-39.6-19.2c-5.1-0.6-42.5-5-45.9-5.5
			c-1.9-0.3-10.7-1.3-7.6-4.7c0.9-1,3.5-1.7,5.1-2.1c19.6-5.4,44.5-4.7,65.2-5.9c4.6-0.3,15.1-0.9,20.1-2.5
			c4.8-1.5,8.8-4.9,9.9-10.2C522.1,348.7,520.7,347.4,518.1,346L518.1,346z"/>
		<path class="st0" d="M1028.1,370.1h-58.7c-0.6-20.3-2.7-40.3-6.1-60c-0.6-3.4-3.5-5.8-7-5.8h-15.8c-3.1,0-5.4,2.8-4.9,5.9
			c3.7,19.6,5.9,39.7,6.6,60h-59.7c-2.7,0-4.9,2.2-4.9,5v18c0,2.7,2.2,5,4.9,5h59.7c-0.7,20.3-2.9,40.3-6.6,60
			c-0.6,3,1.8,5.9,4.9,5.9h15.8c3.4,0,6.4-2.5,7-5.8c3.4-19.7,5.5-39.7,6.1-60h58.7c2.7,0,4.9-2.2,4.9-5v-18
			C1033,372.3,1030.8,370.1,1028.1,370.1z"/>
		<path class="st0" d="M219.2,152.4c2.3,1.6,5.6,0.4,7.9-2.1c20.1-21.7,42.2-40.6,67.3-57.7c164.7-112.4,406.5-96,548,46.4
			c46.5,46.5,72.1,96.5,85.5,135.8c1,2.9,3.7,4.8,6.7,4.8h16.2c3.4,0,5.8-3.3,4.7-6.5c-17.6-52.1-51.7-109.2-101.2-155.7
			C705.8-22.4,465.2-37.9,297.5,76.3c-27.4,18.5-54.7,42.2-78.6,69.3C216.6,148.2,217.4,151.1,219.2,152.4L219.2,152.4z"/>
	</g>
</g>
<g id="Layer_2" class="st1">
	<rect y="-261.7" class="st2" width="79.1" height="79.1"/>
	<rect x="94.5" y="-261.7" class="st3" width="79.1" height="79.1"/>
	<rect x="189" y="-261.7" class="st4" width="79.1" height="79.1"/>
	<rect x="283.5" y="-261.7" class="st5" width="79.1" height="79.1"/>
	<rect x="378" y="-261.7" class="st6" width="79.1" height="79.1"/>
</g>
</svg>
